<?xml version="1.0" encoding="UTF-8" standalone="no"?>
<!-- Generator: Adobe Illustrator 22.0.1, SVG Export Plug-In . SVG Version: 6.00 Build 0)  -->

<svg
   xmlns:dc="http://purl.org/dc/elements/1.1/"
   xmlns:cc="http://creativecommons.org/ns#"
   xmlns:rdf="http://www.w3.org/1999/02/22-rdf-syntax-ns#"
   xmlns:svg="http://www.w3.org/2000/svg"
   xmlns="http://www.w3.org/2000/svg"
   xmlns:sodipodi="http://sodipodi.sourceforge.net/DTD/sodipodi-0.dtd"
   xmlns:inkscape="http://www.inkscape.org/namespaces/inkscape"
   version="1.1"
   id="Layer_1"
   x="0px"
   y="0px"
   viewBox="0 0 1241.6032 1496.6006"
   xml:space="preserve"
   sodipodi:docname="caseplans3.svg"
   width="328.50751mm"
   height="395.97559mm"
   inkscape:version="0.92.2 5c3e80d, 2017-08-06"><metadata
     id="metadata3929"><rdf:RDF><cc:Work
         rdf:about=""><dc:format>image/svg+xml</dc:format><dc:type
           rdf:resource="http://purl.org/dc/dcmitype/StillImage" /><dc:title /></cc:Work></rdf:RDF></metadata><defs
     id="defs3927"><marker
       style="overflow:visible"
       refY="0"
       refX="0"
       orient="auto"
       id="DistanceX"><path
         id="path4765"
         style="stroke:#000000;stroke-width:0.5"
         d="M 3,-3 -3,3 M 0,-5 V 5"
         inkscape:connector-curvature="0" /></marker><pattern
       y="0"
       x="0"
       width="8"
       patternUnits="userSpaceOnUse"
       id="Hatch"
       height="8"><path
         id="path4768"
         stroke-width="0.25"
         stroke="#000000"
         linecap="square"
         d="M8 4 l-4,4" /><path
         id="path4770"
         stroke-width="0.25"
         stroke="#000000"
         linecap="square"
         d="M6 2 l-4,4" /><path
         id="path4772"
         stroke-width="0.25"
         stroke="#000000"
         linecap="square"
         d="M4 0 l-4,4" /></pattern><marker
       style="overflow:visible"
       refY="0"
       refX="0"
       orient="auto"
       id="DistanceX-4"><path
         id="path5041"
         style="stroke:#000000;stroke-width:0.5"
         d="M 3,-3 -3,3 M 0,-5 V 5"
         inkscape:connector-curvature="0" /></marker><pattern
       y="0"
       x="0"
       width="8"
       patternUnits="userSpaceOnUse"
       id="Hatch-8"
       height="8"><path
         id="path5044"
         stroke-width="0.25"
         stroke="#000000"
         linecap="square"
         d="M8 4 l-4,4" /><path
         id="path5046"
         stroke-width="0.25"
         stroke="#000000"
         linecap="square"
         d="M6 2 l-4,4" /><path
         id="path5048"
         stroke-width="0.25"
         stroke="#000000"
         linecap="square"
         d="M4 0 l-4,4" /></pattern></defs><sodipodi:namedview
     pagecolor="#ffffff"
     bordercolor="#666666"
     borderopacity="1"
     objecttolerance="10"
     gridtolerance="10"
     guidetolerance="10"
     inkscape:pageopacity="0"
     inkscape:pageshadow="2"
     inkscape:window-width="1440"
     inkscape:window-height="856"
     id="namedview3925"
     showgrid="false"
     inkscape:measure-start="107,1367"
     inkscape:measure-end="107,1259"
     inkscape:document-units="mm"
     units="mm"
     fit-margin-top="0"
     fit-margin-left="0"
     fit-margin-right="0"
     fit-margin-bottom="0"
     showguides="true"
     inkscape:guide-bbox="true"
     inkscape:zoom="0.75"
     inkscape:cx="129.27896"
     inkscape:cy="446.9292"
     inkscape:window-x="0"
     inkscape:window-y="0"
     inkscape:window-maximized="0"
     inkscape:current-layer="Layer_1" /><style
     type="text/css"
     id="style3834">
	.st0{fill:none;stroke:#000000;stroke-width:0.2835;}
	.st1{fill:#FFFFFF;stroke:#000000;stroke-width:0.2835;stroke-miterlimit:10;}
	.st2{fill:none;stroke:#000000;stroke-width:0.2835;stroke-miterlimit:10;}
</style><g
     transform="matrix(1.1416709,0,0,1.1416709,25.876572,26.053775)"
     id="g3838"
     style="fill:none;stroke:#000000;stroke-width:0.33105229;stroke-miterlimit:4;stroke-dasharray:none;stroke-opacity:1"><polygon
       class="st0"
       points="11.8,1248.3 4.7,1248.3 4.7,1244.7 -2.4,1244.7 -2.4,1248.3 -14,1248.3 -14,1240.9 -22.5,1240.9 -22.5,1223.9 -14,1223.9 -14,1206.9 -22.5,1206.9 -22.5,1189.9 -14,1189.9 -14,1172.9 -22.5,1172.9 -22.5,1155.9 -14,1155.9 -14,1138.9 -22.5,1138.9 -22.5,1121.9 -14,1121.9 -14,1104.9 -22.5,1104.9 -22.5,1087.9 -14,1087.9 -14,1070.9 -22.5,1070.9 -22.5,1053.8 -14,1053.8 -14,1036.8 -22.5,1036.8 -22.5,1019.8 -14,1019.8 -14,1002.8 -22.5,1002.8 -22.5,985.8 -14,985.8 -14,968.8 -22.5,968.8 -22.5,951.8 -14,951.8 -14,934.8 -22.5,934.8 -22.5,917.8 -14,917.8 -14,900.8 -22.5,900.8 -22.5,883.8 -14,883.8 -14,866.8 -22.5,866.8 -22.5,849.7 -14,849.7 -14,832.7 -22.5,832.7 -22.5,815.7 -14,815.7 -14,798.7 -22.5,798.7 -22.5,781.7 -14,781.7 -14,764.7 -22.5,764.7 -22.5,747.7 -14,747.7 -14,730.7 -22.5,730.7 -22.5,713.7 -14,713.7 -14,696.7 -22.5,696.7 -22.5,679.7 -14,679.7 -14,672.3 -2.4,672.3 -2.4,675.9 4.7,675.9 4.7,672.3 11.8,672.3 11.8,663.5 4.7,663.5 4.7,660 -2.4,660 -2.4,663.5 -14,663.5 -14,656.2 -22.5,656.2 -22.5,641.2 1.7,641.2 1.7,632.7 8.6,632.7 8.6,643.2 19.1,643.2 19.1,632.7 26,632.7 26,641.2 43,641.2 43,632.7 60,632.7 60,641.2 77,641.2 77,632.7 94,632.7 94,641.2 111,641.2 111,632.7 128,632.7 128,641.2 145,641.2 145,632.7 151.9,632.7 151.9,643.2 162.4,643.2 162.4,632.7 169.3,632.7 169.3,641.2 193.5,641.2 193.5,656.2 185,656.2 185,663.5 173.4,663.5 173.4,660 166.3,660 166.3,663.5 159.2,663.5 159.2,672.3 166.3,672.3 166.3,675.9 173.4,675.9 173.4,672.3 185,672.3 185,679.7 193.5,679.7 193.5,696.7 185,696.7 185,713.7 193.5,713.7 193.5,730.7 185,730.7 185,747.7 193.5,747.7 193.5,764.7 185,764.7 185,781.7 193.5,781.7 193.5,798.7 185,798.7 185,815.7 193.5,815.7 193.5,832.7 185,832.7 185,849.7 193.5,849.7 193.5,866.8 185,866.8 185,883.8 193.5,883.8 193.5,900.8 185,900.8 185,917.8 193.5,917.8 193.5,934.8 185,934.8 185,951.8 193.5,951.8 193.5,968.8 185,968.8 185,985.8 193.5,985.8 193.5,1002.8 185,1002.8 185,1019.8 193.5,1019.8 193.5,1036.8 185,1036.8 185,1053.8 193.5,1053.8 193.5,1070.9 185,1070.9 185,1087.9 193.5,1087.9 193.5,1104.9 185,1104.9 185,1121.9 193.5,1121.9 193.5,1138.9 185,1138.9 185,1155.9 193.5,1155.9 193.5,1172.9 185,1172.9 185,1189.9 193.5,1189.9 193.5,1206.9 185,1206.9 185,1223.9 193.5,1223.9 193.5,1240.9 185,1240.9 185,1248.3 173.4,1248.3 173.4,1244.7 166.3,1244.7 166.3,1248.3 159.2,1248.3 159.2,1257.1 166.3,1257.1 166.3,1260.6 173.4,1260.6 173.4,1257.1 185,1257.1 185,1264.4 193.5,1264.4 193.5,1279.4 169.3,1279.4 169.3,1287.9 162.4,1287.9 162.4,1277.4 151.9,1277.4 151.9,1287.9 145,1287.9 145,1279.4 128,1279.4 128,1287.9 111,1287.9 111,1279.4 94,1279.4 94,1287.9 77,1287.9 77,1279.4 60,1279.4 60,1287.9 43,1287.9 43,1279.4 26,1279.4 26,1287.9 19.1,1287.9 19.1,1277.4 8.6,1277.4 8.6,1287.9 1.7,1287.9 1.7,1279.4 -22.5,1279.4 -22.5,1264.4 -14,1264.4 -14,1257.1 -2.4,1257.1 -2.4,1260.6 4.7,1260.6 4.7,1257.1 11.8,1257.1 "
       id="polygon3836"
       style="fill:none;stroke:#000000;stroke-width:0.33105229;stroke-miterlimit:4;stroke-dasharray:none;stroke-opacity:1" /></g><g
     transform="matrix(1.1416709,0,0,1.1416709,960.90573,25.876575)"
     id="g3842"
     style="fill:none;stroke:#000000;stroke-width:0.33105229;stroke-miterlimit:4;stroke-dasharray:none;stroke-opacity:1"><polygon
       class="st0"
       points="-814.3,593.1 -814.3,589.5 -821.4,589.5 -821.4,593.1 -833,593.1 -833,585.7 -841.5,585.7 -841.5,568.7 -833,568.7 -833,551.7 -841.5,551.7 -841.5,534.7 -833,534.7 -833,517.7 -841.5,517.7 -841.5,500.7 -833,500.7 -833,483.7 -841.5,483.7 -841.5,466.7 -833,466.7 -833,449.7 -841.5,449.7 -841.5,432.7 -833,432.7 -833,415.7 -841.5,415.7 -841.5,398.6 -833,398.6 -833,381.6 -841.5,381.6 -841.5,364.6 -833,364.6 -833,347.6 -841.5,347.6 -841.5,330.6 -833,330.6 -833,313.6 -841.5,313.6 -841.5,296.6 -833,296.6 -833,279.6 -841.5,279.6 -841.5,262.6 -833,262.6 -833,245.6 -841.5,245.6 -841.5,228.6 -833,228.6 -833,211.6 -841.5,211.6 -841.5,194.5 -833,194.5 -833,177.5 -841.5,177.5 -841.5,160.5 -833,160.5 -833,143.5 -841.5,143.5 -841.5,126.5 -833,126.5 -833,109.5 -841.5,109.5 -841.5,92.5 -833,92.5 -833,75.5 -841.5,75.5 -841.5,58.5 -833,58.5 -833,41.5 -841.5,41.5 -841.5,24.5 -833,24.5 -833,17.1 -821.4,17.1 -821.4,20.7 -814.3,20.7 -814.3,17.1 -807.2,17.1 -807.2,8.3 -814.3,8.3 -814.3,4.8 -821.4,4.8 -821.4,8.3 -833,8.3 -833,1 -841.5,1 -841.5,-14 -817.3,-14 -817.3,-22.5 -810.4,-22.5 -810.4,-12 -799.9,-12 -799.9,-22.5 -793,-22.5 -793,-14 -776,-14 -776,-22.5 -759,-22.5 -759,-14 -742,-14 -742,-22.5 -725,-22.5 -725,-14 -708,-14 -708,-22.5 -691,-22.5 -691,-14 -674,-14 -674,-22.5 -667.1,-22.5 -667.1,-12 -656.6,-12 -656.6,-22.5 -649.7,-22.5 -649.7,-14 -625.5,-14 -625.5,1 -634,1 -634,8.3 -645.6,8.3 -645.6,4.8 -652.7,4.8 -652.7,8.3 -659.8,8.3 -659.8,17.1 -652.7,17.1 -652.7,20.7 -645.6,20.7 -645.6,17.1 -634,17.1 -634,24.5 -625.5,24.5 -625.5,41.5 -634,41.5 -634,58.5 -625.5,58.5 -625.5,75.5 -634,75.5 -634,92.5 -625.5,92.5 -625.5,109.5 -634,109.5 -634,126.5 -625.5,126.5 -625.5,143.5 -634,143.5 -634,160.5 -625.5,160.5 -625.5,177.5 -634,177.5 -634,194.5 -625.5,194.5 -625.5,211.6 -634,211.6 -634,228.6 -625.5,228.6 -625.5,245.6 -634,245.6 -634,262.6 -625.5,262.6 -625.5,279.6 -634,279.6 -634,296.6 -625.5,296.6 -625.5,313.6 -634,313.6 -634,330.6 -625.5,330.6 -625.5,347.6 -634,347.6 -634,364.6 -625.5,364.6 -625.5,381.6 -634,381.6 -634,398.6 -625.5,398.6 -625.5,415.7 -634,415.7 -634,432.7 -625.5,432.7 -625.5,449.7 -634,449.7 -634,466.7 -625.5,466.7 -625.5,483.7 -634,483.7 -634,500.7 -625.5,500.7 -625.5,517.7 -634,517.7 -634,534.7 -625.5,534.7 -625.5,551.7 -634,551.7 -634,568.7 -625.5,568.7 -625.5,585.7 -634,585.7 -634,593.1 -645.6,593.1 -645.6,589.5 -652.7,589.5 -652.7,593.1 -659.8,593.1 -659.8,601.9 -652.7,601.9 -652.7,605.4 -645.6,605.4 -645.6,601.9 -634,601.9 -634,609.2 -625.5,609.2 -625.5,624.2 -649.7,624.2 -649.7,632.7 -656.6,632.7 -656.6,622.2 -667.1,622.2 -667.1,632.7 -674,632.7 -674,624.2 -691,624.2 -691,632.7 -708,632.7 -708,624.2 -725,624.2 -725,632.7 -742,632.7 -742,624.2 -759,624.2 -759,632.7 -776,632.7 -776,624.2 -793,624.2 -793,632.7 -799.9,632.7 -799.9,622.2 -810.4,622.2 -810.4,632.7 -817.3,632.7 -817.3,624.2 -841.5,624.2 -841.5,609.2 -833,609.2 -833,601.9 -821.4,601.9 -821.4,605.4 -814.3,605.4 -814.3,601.9 -807.2,601.9 -807.2,593.1 "
       id="polygon3840"
       style="fill:none;stroke:#000000;stroke-width:0.33105229;stroke-miterlimit:4;stroke-dasharray:none;stroke-opacity:1" /></g><g
     transform="matrix(1.1416709,0,0,1.1416709,1895.9335,26.053775)"
     id="g3846"
     style="fill:none;stroke:#000000;stroke-width:0.33105229;stroke-miterlimit:4;stroke-dasharray:none;stroke-opacity:1"><polygon
       class="st0"
       points="-789.3,1223.9 -789.3,1206.9 -780.8,1206.9 -780.8,1189.9 -789.3,1189.9 -789.3,1172.9 -780.8,1172.9 -780.8,1155.9 -789.3,1155.9 -789.3,1138.9 -780.8,1138.9 -780.8,1121.9 -789.3,1121.9 -789.3,1104.9 -780.8,1104.9 -780.8,1087.9 -789.3,1087.9 -789.3,1070.9 -780.8,1070.9 -780.8,1053.8 -789.3,1053.8 -789.3,1036.8 -780.8,1036.8 -780.8,1019.8 -789.3,1019.8 -789.3,1002.8 -780.8,1002.8 -780.8,985.8 -789.3,985.8 -789.3,968.8 -780.8,968.8 -780.8,951.8 -789.3,951.8 -789.3,934.8 -780.8,934.8 -780.8,917.8 -789.3,917.8 -789.3,900.8 -780.8,900.8 -780.8,883.8 -789.3,883.8 -789.3,866.8 -780.8,866.8 -780.8,849.7 -789.3,849.7 -789.3,832.7 -780.8,832.7 -780.8,815.7 -789.3,815.7 -789.3,798.7 -780.8,798.7 -780.8,781.7 -789.3,781.7 -789.3,764.7 -780.8,764.7 -780.8,747.7 -789.3,747.7 -789.3,730.7 -780.8,730.7 -780.8,713.7 -789.3,713.7 -789.3,696.7 -780.8,696.7 -780.8,679.7 -789.3,679.7 -789.3,673.2 -778.8,673.2 -778.8,662.7 -789.3,662.7 -789.3,656.2 -780.8,656.2 -780.8,632.7 -765.1,632.7 -765.1,641.2 -757.3,641.2 -757.3,652.8 -760.9,652.8 -760.9,659.9 -757.3,659.9 -757.3,667 -748.6,667 -748.6,659.9 -745,659.9 -745,652.8 -748.6,652.8 -748.6,641.2 -740.8,641.2 -740.8,632.7 -723.8,632.7 -723.8,641.2 -706.8,641.2 -706.8,632.7 -689.8,632.7 -689.8,641.2 -672.8,641.2 -672.8,632.7 -655.8,632.7 -655.8,641.2 -638.8,641.2 -638.8,632.7 -621.8,632.7 -621.8,641.2 -614,641.2 -614,652.8 -617.6,652.8 -617.6,659.9 -614,659.9 -614,667 -605.3,667 -605.3,659.9 -601.7,659.9 -601.7,652.8 -605.3,652.8 -605.3,641.2 -597.5,641.2 -597.5,632.7 -581.8,632.7 -581.8,656.2 -573.3,656.2 -573.3,662.7 -583.8,662.7 -583.8,673.2 -573.3,673.2 -573.3,679.7 -581.8,679.7 -581.8,696.7 -573.3,696.7 -573.3,713.7 -581.8,713.7 -581.8,730.7 -573.3,730.7 -573.3,747.7 -581.8,747.7 -581.8,764.7 -573.3,764.7 -573.3,781.7 -581.8,781.7 -581.8,798.7 -573.3,798.7 -573.3,815.7 -581.8,815.7 -581.8,832.7 -573.3,832.7 -573.3,849.7 -581.8,849.7 -581.8,866.8 -573.3,866.8 -573.3,883.8 -581.8,883.8 -581.8,900.8 -573.3,900.8 -573.3,917.8 -581.8,917.8 -581.8,934.8 -573.3,934.8 -573.3,951.8 -581.8,951.8 -581.8,968.8 -573.3,968.8 -573.3,985.8 -581.8,985.8 -581.8,1002.8 -573.3,1002.8 -573.3,1019.8 -581.8,1019.8 -581.8,1036.8 -573.3,1036.8 -573.3,1053.8 -581.8,1053.8 -581.8,1070.9 -573.3,1070.9 -573.3,1087.9 -581.8,1087.9 -581.8,1104.9 -573.3,1104.9 -573.3,1121.9 -581.8,1121.9 -581.8,1138.9 -573.3,1138.9 -573.3,1155.9 -581.8,1155.9 -581.8,1172.9 -573.3,1172.9 -573.3,1189.9 -581.8,1189.9 -581.8,1206.9 -573.3,1206.9 -573.3,1223.9 -581.8,1223.9 -581.8,1240.9 -573.3,1240.9 -573.3,1247.4 -583.8,1247.4 -583.8,1257.9 -573.3,1257.9 -573.3,1264.4 -581.8,1264.4 -581.8,1287.9 -597.5,1287.9 -597.5,1279.4 -605.3,1279.4 -605.3,1267.8 -601.7,1267.8 -601.7,1260.7 -605.3,1260.7 -605.3,1253.6 -614,1253.6 -614,1260.7 -617.6,1260.7 -617.6,1267.8 -614,1267.8 -614,1279.4 -621.8,1279.4 -621.8,1287.9 -638.8,1287.9 -638.8,1279.4 -655.8,1279.4 -655.8,1287.9 -672.8,1287.9 -672.8,1279.4 -689.8,1279.4 -689.8,1287.9 -706.8,1287.9 -706.8,1279.4 -723.8,1279.4 -723.8,1287.9 -740.8,1287.9 -740.8,1279.4 -748.6,1279.4 -748.6,1267.8 -745,1267.8 -745,1260.7 -748.6,1260.7 -748.6,1253.6 -757.3,1253.6 -757.3,1260.7 -760.9,1260.7 -760.9,1267.8 -757.3,1267.8 -757.3,1279.4 -765.1,1279.4 -765.1,1287.9 -780.8,1287.9 -780.8,1264.4 -789.3,1264.4 -789.3,1257.9 -778.8,1257.9 -778.8,1247.4 -789.3,1247.4 -789.3,1240.9 -780.8,1240.9 -780.8,1223.9 "
       id="polygon3844"
       style="fill:none;stroke:#000000;stroke-width:0.33105229;stroke-miterlimit:4;stroke-dasharray:none;stroke-opacity:1" /></g><g
     transform="matrix(1.1416709,0,0,1.1416709,1895.9342,334.12771)"
     id="g3850"
     style="fill:none;stroke:#000000;stroke-width:0.33105229;stroke-miterlimit:4;stroke-dasharray:none;stroke-opacity:1"><polygon
       class="st0"
       points="-789.3,298.7 -789.3,281.7 -780.8,281.7 -780.8,264.7 -789.3,264.7 -789.3,247.7 -780.8,247.7 -780.8,230.7 -789.3,230.7 -789.3,213.7 -780.8,213.7 -780.8,196.7 -789.3,196.7 -789.3,179.7 -780.8,179.7 -780.8,162.7 -789.3,162.7 -789.3,145.7 -780.8,145.7 -780.8,128.6 -789.3,128.6 -789.3,111.6 -780.8,111.6 -780.8,94.6 -789.3,94.6 -789.3,77.6 -780.8,77.6 -780.8,60.6 -789.3,60.6 -789.3,43.6 -780.8,43.6 -780.8,26.6 -789.3,26.6 -789.3,9.6 -780.8,9.6 -780.8,-7.4 -789.3,-7.4 -789.3,-24.4 -780.8,-24.4 -780.8,-41.4 -789.3,-41.4 -789.3,-58.4 -780.8,-58.4 -780.8,-75.5 -789.3,-75.5 -789.3,-92.5 -780.8,-92.5 -780.8,-109.5 -789.3,-109.5 -789.3,-126.5 -780.8,-126.5 -780.8,-143.5 -789.3,-143.5 -789.3,-160.5 -780.8,-160.5 -780.8,-177.5 -789.3,-177.5 -789.3,-194.5 -780.8,-194.5 -780.8,-211.5 -789.3,-211.5 -789.3,-228.5 -780.8,-228.5 -780.8,-245.5 -789.3,-245.5 -789.3,-252 -778.8,-252 -778.8,-262.5 -789.3,-262.5 -789.3,-269 -780.8,-269 -780.8,-292.5 -765.1,-292.5 -765.1,-284 -757.3,-284 -757.3,-272.4 -760.9,-272.4 -760.9,-265.3 -757.3,-265.3 -757.3,-258.2 -748.6,-258.2 -748.6,-265.3 -745,-265.3 -745,-272.4 -748.6,-272.4 -748.6,-284 -740.8,-284 -740.8,-292.5 -723.8,-292.5 -723.8,-284 -706.8,-284 -706.8,-292.5 -689.8,-292.5 -689.8,-284 -672.8,-284 -672.8,-292.5 -655.8,-292.5 -655.8,-284 -638.8,-284 -638.8,-292.5 -621.8,-292.5 -621.8,-284 -614,-284 -614,-272.4 -617.6,-272.4 -617.6,-265.3 -614,-265.3 -614,-258.2 -605.3,-258.2 -605.3,-265.3 -601.7,-265.3 -601.7,-272.4 -605.3,-272.4 -605.3,-284 -597.5,-284 -597.5,-292.5 -581.8,-292.5 -581.8,-269 -573.3,-269 -573.3,-262.5 -583.8,-262.5 -583.8,-252 -573.3,-252 -573.3,-245.5 -581.8,-245.5 -581.8,-228.5 -573.3,-228.5 -573.3,-211.5 -581.8,-211.5 -581.8,-194.5 -573.3,-194.5 -573.3,-177.5 -581.8,-177.5 -581.8,-160.5 -573.3,-160.5 -573.3,-143.5 -581.8,-143.5 -581.8,-126.5 -573.3,-126.5 -573.3,-109.5 -581.8,-109.5 -581.8,-92.5 -573.3,-92.5 -573.3,-75.5 -581.8,-75.5 -581.8,-58.4 -573.3,-58.4 -573.3,-41.4 -581.8,-41.4 -581.8,-24.4 -573.3,-24.4 -573.3,-7.4 -581.8,-7.4 -581.8,9.6 -573.3,9.6 -573.3,26.6 -581.8,26.6 -581.8,43.6 -573.3,43.6 -573.3,60.6 -581.8,60.6 -581.8,77.6 -573.3,77.6 -573.3,94.6 -581.8,94.6 -581.8,111.6 -573.3,111.6 -573.3,128.6 -581.8,128.6 -581.8,145.7 -573.3,145.7 -573.3,162.7 -581.8,162.7 -581.8,179.7 -573.3,179.7 -573.3,196.7 -581.8,196.7 -581.8,213.7 -573.3,213.7 -573.3,230.7 -581.8,230.7 -581.8,247.7 -573.3,247.7 -573.3,264.7 -581.8,264.7 -581.8,281.7 -573.3,281.7 -573.3,298.7 -581.8,298.7 -581.8,315.7 -573.3,315.7 -573.3,322.2 -583.8,322.2 -583.8,332.7 -573.3,332.7 -573.3,339.2 -581.8,339.2 -581.8,362.7 -597.5,362.7 -597.5,354.2 -605.3,354.2 -605.3,342.6 -601.7,342.6 -601.7,335.5 -605.3,335.5 -605.3,328.4 -614,328.4 -614,335.5 -617.6,335.5 -617.6,342.6 -614,342.6 -614,354.2 -621.8,354.2 -621.8,362.7 -638.8,362.7 -638.8,354.2 -655.8,354.2 -655.8,362.7 -672.8,362.7 -672.8,354.2 -689.8,354.2 -689.8,362.7 -706.8,362.7 -706.8,354.2 -723.8,354.2 -723.8,362.7 -740.8,362.7 -740.8,354.2 -748.6,354.2 -748.6,342.6 -745,342.6 -745,335.5 -748.6,335.5 -748.6,328.4 -757.3,328.4 -757.3,335.5 -760.9,335.5 -760.9,342.6 -757.3,342.6 -757.3,354.2 -765.1,354.2 -765.1,362.7 -780.8,362.7 -780.8,339.2 -789.3,339.2 -789.3,332.7 -778.8,332.7 -778.8,322.2 -789.3,322.2 -789.3,315.7 -780.8,315.7 -780.8,298.7 "
       id="polygon3848"
       style="fill:none;stroke:#000000;stroke-width:0.33105229;stroke-miterlimit:4;stroke-dasharray:none;stroke-opacity:1" /></g><g
     transform="matrix(1.1416709,0,0,1.1416709,25.876572,334.30491)"
     id="g3854"
     style="fill:none;stroke:#000000;stroke-width:0.33105229;stroke-miterlimit:4;stroke-dasharray:none;stroke-opacity:1"><polygon
       class="st0"
       points="193.5,953.9 193.5,936.9 202,936.9 202,919.9 193.5,919.9 193.5,902.9 202,902.9 202,885.9 193.5,885.9 193.5,868.9 202,868.9 202,851.9 193.5,851.9 193.5,834.9 202,834.9 202,817.9 193.5,817.9 193.5,800.9 202,800.9 202,783.8 193.5,783.8 193.5,766.8 202,766.8 202,749.8 193.5,749.8 193.5,732.8 202,732.8 202,715.8 193.5,715.8 193.5,698.8 202,698.8 202,681.8 193.5,681.8 193.5,664.8 202,664.8 202,647.8 193.5,647.8 193.5,630.8 202,630.8 202,613.8 193.5,613.8 193.5,596.8 202,596.8 202,579.7 193.5,579.7 193.5,562.7 202,562.7 202,545.7 193.5,545.7 193.5,528.7 202,528.7 202,511.7 193.5,511.7 193.5,494.7 202,494.7 202,477.7 193.5,477.7 193.5,460.7 202,460.7 202,443.7 193.5,443.7 193.5,426.7 202,426.7 202,409.7 193.5,409.7 193.5,403.2 204,403.2 204,392.7 193.5,392.7 193.5,386.2 202,386.2 202,362.7 217,362.7 217,371.2 224.3,371.2 224.3,382.8 220.8,382.8 220.8,389.9 224.3,389.9 224.3,397 233.1,397 233.1,389.9 236.7,389.9 236.7,382.8 233.1,382.8 233.1,371.2 240.5,371.2 240.5,362.7 257.5,362.7 257.5,371.2 274.5,371.2 274.5,362.7 291.5,362.7 291.5,371.2 308.5,371.2 308.5,362.7 325.5,362.7 325.5,371.2 342.5,371.2 342.5,362.7 359.5,362.7 359.5,371.2 376.5,371.2 376.5,362.7 393.5,362.7 393.5,371.2 410.5,371.2 410.5,362.7 427.6,362.7 427.6,371.2 444.6,371.2 444.6,362.7 461.6,362.7 461.6,371.2 478.6,371.2 478.6,362.7 495.6,362.7 495.6,371.2 512.6,371.2 512.6,362.7 529.6,362.7 529.6,371.2 546.6,371.2 546.6,362.7 563.6,362.7 563.6,371.2 580.6,371.2 580.6,362.7 597.6,362.7 597.6,371.2 614.6,371.2 614.6,362.7 631.7,362.7 631.7,371.2 648.7,371.2 648.7,362.7 665.7,362.7 665.7,371.2 682.7,371.2 682.7,362.7 699.7,362.7 699.7,371.2 716.7,371.2 716.7,362.7 733.7,362.7 733.7,371.2 750.7,371.2 750.7,362.7 767.7,362.7 767.7,371.2 784.7,371.2 784.7,362.7 801.7,362.7 801.7,371.2 809.1,371.2 809.1,382.8 805.5,382.8 805.5,389.9 809.1,389.9 809.1,397 817.9,397 817.9,389.9 821.4,389.9 821.4,382.8 817.9,382.8 817.9,371.2 825.2,371.2 825.2,362.7 840.2,362.7 840.2,386.2 848.7,386.2 848.7,392.7 838.2,392.7 838.2,403.2 848.7,403.2 848.7,409.7 840.2,409.7 840.2,426.7 848.7,426.7 848.7,443.7 840.2,443.7 840.2,460.7 848.7,460.7 848.7,477.7 840.2,477.7 840.2,494.7 848.7,494.7 848.7,511.7 840.2,511.7 840.2,528.7 848.7,528.7 848.7,545.7 840.2,545.7 840.2,562.7 848.7,562.7 848.7,579.7 840.2,579.7 840.2,596.8 848.7,596.8 848.7,613.8 840.2,613.8 840.2,630.8 848.7,630.8 848.7,647.8 840.2,647.8 840.2,664.8 848.7,664.8 848.7,681.8 840.2,681.8 840.2,698.8 848.7,698.8 848.7,715.8 840.2,715.8 840.2,732.8 848.7,732.8 848.7,749.8 840.2,749.8 840.2,766.8 848.7,766.8 848.7,783.8 840.2,783.8 840.2,800.9 848.7,800.9 848.7,817.9 840.2,817.9 840.2,834.9 848.7,834.9 848.7,851.9 840.2,851.9 840.2,868.9 848.7,868.9 848.7,885.9 840.2,885.9 840.2,902.9 848.7,902.9 848.7,919.9 840.2,919.9 840.2,936.9 848.7,936.9 848.7,953.9 840.2,953.9 840.2,970.9 848.7,970.9 848.7,977.4 838.2,977.4 838.2,987.9 848.7,987.9 848.7,994.4 840.2,994.4 840.2,1017.9 825.2,1017.9 825.2,1009.4 817.9,1009.4 817.9,997.8 821.4,997.8 821.4,990.7 817.9,990.7 817.9,983.6 809.1,983.6 809.1,990.7 805.5,990.7 805.5,997.8 809.1,997.8 809.1,1009.4 801.7,1009.4 801.7,1017.9 784.7,1017.9 784.7,1009.4 767.7,1009.4 767.7,1017.9 750.7,1017.9 750.7,1009.4 733.7,1009.4 733.7,1017.9 716.7,1017.9 716.7,1009.4 699.7,1009.4 699.7,1017.9 682.7,1017.9 682.7,1009.4 665.7,1009.4 665.7,1017.9 648.7,1017.9 648.7,1009.4 631.7,1009.4 631.7,1017.9 614.6,1017.9 614.6,1009.4 597.6,1009.4 597.6,1017.9 580.6,1017.9 580.6,1009.4 563.6,1009.4 563.6,1017.9 546.6,1017.9 546.6,1009.4 529.6,1009.4 529.6,1017.9 512.6,1017.9 512.6,1009.4 495.6,1009.4 495.6,1017.9 478.6,1017.9 478.6,1009.4 461.6,1009.4 461.6,1017.9 444.6,1017.9 444.6,1009.4 427.6,1009.4 427.6,1017.9 410.5,1017.9 410.5,1009.4 393.5,1009.4 393.5,1017.9 376.5,1017.9 376.5,1009.4 359.5,1009.4 359.5,1017.9 342.5,1017.9 342.5,1009.4 325.5,1009.4 325.5,1017.9 308.5,1017.9 308.5,1009.4 291.5,1009.4 291.5,1017.9 274.5,1017.9 274.5,1009.4 257.5,1009.4 257.5,1017.9 240.5,1017.9 240.5,1009.4 233.1,1009.4 233.1,997.8 236.7,997.8 236.7,990.7 233.1,990.7 233.1,983.6 224.3,983.6 224.3,990.7 220.8,990.7 220.8,997.8 224.3,997.8 224.3,1009.4 217,1009.4 217,1017.9 202,1017.9 202,994.4 193.5,994.4 193.5,987.9 204,987.9 204,977.4 193.5,977.4 193.5,970.9 202,970.9 202,953.9 "
       id="polygon3852"
       style="fill:none;stroke:#000000;stroke-width:0.33105229;stroke-miterlimit:4;stroke-dasharray:none;stroke-opacity:1" /></g><g
     transform="matrix(1.1416709,0,0,1.1416709,960.90573,334.12771)"
     id="g3858"
     style="fill:none;stroke:#000000;stroke-width:0.33105229;stroke-miterlimit:4;stroke-dasharray:none;stroke-opacity:1"><polygon
       class="st0"
       points="-625.5,298.7 -625.5,281.7 -617,281.7 -617,264.7 -625.5,264.7 -625.5,247.7 -617,247.7 -617,230.7 -625.5,230.7 -625.5,213.7 -617,213.7 -617,196.7 -625.5,196.7 -625.5,179.7 -617,179.7 -617,162.7 -625.5,162.7 -625.5,145.7 -617,145.7 -617,128.6 -625.5,128.6 -625.5,111.6 -617,111.6 -617,94.6 -625.5,94.6 -625.5,77.6 -617,77.6 -617,60.6 -625.5,60.6 -625.5,43.6 -617,43.6 -617,26.6 -625.5,26.6 -625.5,9.6 -617,9.6 -617,-7.4 -625.5,-7.4 -625.5,-24.4 -617,-24.4 -617,-41.4 -625.5,-41.4 -625.5,-58.4 -617,-58.4 -617,-75.5 -625.5,-75.5 -625.5,-92.5 -617,-92.5 -617,-109.5 -625.5,-109.5 -625.5,-126.5 -617,-126.5 -617,-143.5 -625.5,-143.5 -625.5,-160.5 -617,-160.5 -617,-177.5 -625.5,-177.5 -625.5,-194.5 -617,-194.5 -617,-211.5 -625.5,-211.5 -625.5,-228.5 -617,-228.5 -617,-245.5 -625.5,-245.5 -625.5,-252 -615,-252 -615,-262.5 -625.5,-262.5 -625.5,-269 -617,-269 -617,-292.5 -602,-292.5 -602,-284 -594.7,-284 -594.7,-272.4 -598.2,-272.4 -598.2,-265.3 -594.7,-265.3 -594.7,-258.2 -585.9,-258.2 -585.9,-265.3 -582.3,-265.3 -582.3,-272.4 -585.9,-272.4 -585.9,-284 -578.5,-284 -578.5,-292.5 -561.5,-292.5 -561.5,-284 -544.5,-284 -544.5,-292.5 -527.5,-292.5 -527.5,-284 -510.5,-284 -510.5,-292.5 -493.5,-292.5 -493.5,-284 -476.5,-284 -476.5,-292.5 -459.5,-292.5 -459.5,-284 -442.5,-284 -442.5,-292.5 -425.5,-292.5 -425.5,-284 -408.5,-284 -408.5,-292.5 -391.4,-292.5 -391.4,-284 -374.4,-284 -374.4,-292.5 -357.4,-292.5 -357.4,-284 -340.4,-284 -340.4,-292.5 -323.4,-292.5 -323.4,-284 -306.4,-284 -306.4,-292.5 -289.4,-292.5 -289.4,-284 -272.4,-284 -272.4,-292.5 -255.4,-292.5 -255.4,-284 -238.4,-284 -238.4,-292.5 -221.4,-292.5 -221.4,-284 -204.4,-284 -204.4,-292.5 -187.3,-292.5 -187.3,-284 -170.3,-284 -170.3,-292.5 -153.3,-292.5 -153.3,-284 -136.3,-284 -136.3,-292.5 -119.3,-292.5 -119.3,-284 -102.3,-284 -102.3,-292.5 -85.3,-292.5 -85.3,-284 -68.3,-284 -68.3,-292.5 -51.3,-292.5 -51.3,-284 -34.3,-284 -34.3,-292.5 -17.3,-292.5 -17.3,-284 -9.9,-284 -9.9,-272.4 -13.5,-272.4 -13.5,-265.3 -9.9,-265.3 -9.9,-258.2 -1.1,-258.2 -1.1,-265.3 2.4,-265.3 2.4,-272.4 -1.1,-272.4 -1.1,-284 6.2,-284 6.2,-292.5 21.2,-292.5 21.2,-269 29.7,-269 29.7,-262.5 19.2,-262.5 19.2,-252 29.7,-252 29.7,-245.5 21.2,-245.5 21.2,-228.5 29.7,-228.5 29.7,-211.5 21.2,-211.5 21.2,-194.5 29.7,-194.5 29.7,-177.5 21.2,-177.5 21.2,-160.5 29.7,-160.5 29.7,-143.5 21.2,-143.5 21.2,-126.5 29.7,-126.5 29.7,-109.5 21.2,-109.5 21.2,-92.5 29.7,-92.5 29.7,-75.5 21.2,-75.5 21.2,-58.4 29.7,-58.4 29.7,-41.4 21.2,-41.4 21.2,-24.4 29.7,-24.4 29.7,-7.4 21.2,-7.4 21.2,9.6 29.7,9.6 29.7,26.6 21.2,26.6 21.2,43.6 29.7,43.6 29.7,60.6 21.2,60.6 21.2,77.6 29.7,77.6 29.7,94.6 21.2,94.6 21.2,111.6 29.7,111.6 29.7,128.6 21.2,128.6 21.2,145.7 29.7,145.7 29.7,162.7 21.2,162.7 21.2,179.7 29.7,179.7 29.7,196.7 21.2,196.7 21.2,213.7 29.7,213.7 29.7,230.7 21.2,230.7 21.2,247.7 29.7,247.7 29.7,264.7 21.2,264.7 21.2,281.7 29.7,281.7 29.7,298.7 21.2,298.7 21.2,315.7 29.7,315.7 29.7,322.2 19.2,322.2 19.2,332.7 29.7,332.7 29.7,339.2 21.2,339.2 21.2,362.7 6.2,362.7 6.2,354.2 -1.1,354.2 -1.1,342.6 2.4,342.6 2.4,335.5 -1.1,335.5 -1.1,328.4 -9.9,328.4 -9.9,335.5 -13.5,335.5 -13.5,342.6 -9.9,342.6 -9.9,354.2 -17.3,354.2 -17.3,362.7 -34.3,362.7 -34.3,354.2 -51.3,354.2 -51.3,362.7 -68.3,362.7 -68.3,354.2 -85.3,354.2 -85.3,362.7 -102.3,362.7 -102.3,354.2 -119.3,354.2 -119.3,362.7 -136.3,362.7 -136.3,354.2 -153.3,354.2 -153.3,362.7 -170.3,362.7 -170.3,354.2 -187.3,354.2 -187.3,362.7 -204.4,362.7 -204.4,354.2 -221.4,354.2 -221.4,362.7 -238.4,362.7 -238.4,354.2 -255.4,354.2 -255.4,362.7 -272.4,362.7 -272.4,354.2 -289.4,354.2 -289.4,362.7 -306.4,362.7 -306.4,354.2 -323.4,354.2 -323.4,362.7 -340.4,362.7 -340.4,354.2 -357.4,354.2 -357.4,362.7 -374.4,362.7 -374.4,354.2 -391.4,354.2 -391.4,362.7 -408.5,362.7 -408.5,354.2 -425.5,354.2 -425.5,362.7 -442.5,362.7 -442.5,354.2 -459.5,354.2 -459.5,362.7 -476.5,362.7 -476.5,354.2 -493.5,354.2 -493.5,362.7 -510.5,362.7 -510.5,354.2 -527.5,354.2 -527.5,362.7 -544.5,362.7 -544.5,354.2 -561.5,354.2 -561.5,362.7 -578.5,362.7 -578.5,354.2 -585.9,354.2 -585.9,342.6 -582.3,342.6 -582.3,335.5 -585.9,335.5 -585.9,328.4 -594.7,328.4 -594.7,335.5 -598.2,335.5 -598.2,342.6 -594.7,342.6 -594.7,354.2 -602,354.2 -602,362.7 -617,362.7 -617,339.2 -625.5,339.2 -625.5,332.7 -615,332.7 -615,322.2 -625.5,322.2 -625.5,315.7 -617,315.7 -617,298.7 "
       id="polygon3856"
       style="fill:none;stroke:#000000;stroke-width:0.33105229;stroke-miterlimit:4;stroke-dasharray:none;stroke-opacity:1" /></g><g
     id="g5101"
     transform="translate(-187.75987,-123.47285)"
     style="fill:none;stroke:#000000;stroke-width:0.37795277;stroke-miterlimit:4;stroke-dasharray:none;stroke-opacity:1"><g
       transform="translate(311.25,-624.72326)"
       inkscape:label="0"
       id="g5063"
       style="fill:none;stroke:#000000;stroke-width:0.37795277;stroke-miterlimit:4;stroke-dasharray:none;stroke-opacity:1"><path
         inkscape:connector-curvature="0"
         d="m 71.811024,1122.5197 a 71.811024,71.811024 0 1 0 -143.622048,0 71.811024,71.811024 0 1 0 143.622048,0 z"
         style="fill:none;stroke:#000000;stroke-width:0.37795277;stroke-miterlimit:4;stroke-dasharray:none;stroke-opacity:1"
         id="path5053" /><path
         inkscape:connector-curvature="0"
         d="m -54.425197,1182.9921 a 6.047244,6.047244 0 1 0 -12.094488,0 6.047244,6.047244 0 1 0 12.094488,0 z"
         style="fill:none;stroke:#000000;stroke-width:0.37795277;stroke-miterlimit:4;stroke-dasharray:none;stroke-opacity:1"
         id="path5055" /><path
         inkscape:connector-curvature="0"
         d="m 66.519685,1062.0472 a 6.047244,6.047244 0 1 0 -12.094488,0 6.047244,6.047244 0 1 0 12.094488,0 z"
         style="fill:none;stroke:#000000;stroke-width:0.37795277;stroke-miterlimit:4;stroke-dasharray:none;stroke-opacity:1"
         id="path5057" /><path
         inkscape:connector-curvature="0"
         d="m -54.425197,1062.0472 a 6.047244,6.047244 0 1 0 -12.094488,0 6.047244,6.047244 0 1 0 12.094488,0 z"
         style="fill:none;stroke:#000000;stroke-width:0.37795277;stroke-miterlimit:4;stroke-dasharray:none;stroke-opacity:1"
         id="path5059" /><path
         inkscape:connector-curvature="0"
         d="m 66.519685,1182.9921 a 6.047244,6.047244 0 1 0 -12.094488,0 6.047244,6.047244 0 1 0 12.094488,0 z"
         style="fill:none;stroke:#000000;stroke-width:0.37795277;stroke-miterlimit:4;stroke-dasharray:none;stroke-opacity:1"
         id="path5061" /></g></g><g
     id="g5145"
     transform="rotate(180,-158.22409,444.55735)"
     style="fill:none;stroke:#000000;stroke-width:0.37795277;stroke-miterlimit:4;stroke-dasharray:none;stroke-opacity:1"><rect
       y="216.54639"
       x="-491.3743"
       height="180.66142"
       width="103.1811"
       id="rect5103"
       style="fill:none;stroke:#000000;stroke-width:0.37795277;stroke-miterlimit:4;stroke-dasharray:none;stroke-opacity:1" /><ellipse
       ry="5.7923503"
       rx="6.4558086"
       cy="306.87711"
       cx="-513.6391"
       id="path5105"
       style="fill:none;stroke:#000000;stroke-width:0.37795277;stroke-miterlimit:4;stroke-dasharray:none;stroke-opacity:1" /><ellipse
       style="fill:none;stroke:#000000;stroke-width:0.37795277;stroke-miterlimit:4;stroke-dasharray:none;stroke-opacity:1"
       id="ellipse5140"
       cx="-366.23752"
       cy="306.87711"
       rx="6.4558086"
       ry="5.7923503" /></g><circle
     style="fill:none;stroke:#000000;stroke-width:0.37795277;stroke-miterlimit:4;stroke-dasharray:none;stroke-opacity:1"
     id="path5147"
     cx="123.48943"
     cy="1383.0511"
     r="24.214811" /><circle
     style="fill:none;stroke:#000000;stroke-width:0.30278966;stroke-miterlimit:4;stroke-dasharray:none;stroke-opacity:1"
     id="path5149"
     cx="123.48943"
     cy="1282.2668"
     r="32.976166" /><g
     id="g5163"
     transform="translate(-110.65625,-5.3061854)"
     style="fill:none;stroke:#000000;stroke-width:0.37795277;stroke-miterlimit:4;stroke-dasharray:none;stroke-opacity:1"><circle
       r="5.7771091"
       cy="338.7406"
       cx="559.00262"
       id="path5151"
       style="fill:none;stroke:#000000;stroke-width:0.37795277;stroke-miterlimit:4;stroke-dasharray:none;stroke-opacity:1" /><circle
       style="fill:none;stroke:#000000;stroke-width:0.37795277;stroke-miterlimit:4;stroke-dasharray:none;stroke-opacity:1"
       id="circle5153"
       cx="778.21521"
       cy="153.54375"
       r="5.7771091" /><circle
       style="fill:none;stroke:#000000;stroke-width:0.37795277;stroke-miterlimit:4;stroke-dasharray:none;stroke-opacity:1"
       id="circle5155"
       cx="559.00262"
       cy="153.54375"
       r="5.7771091" /><circle
       style="fill:none;stroke:#000000;stroke-width:0.37795277;stroke-miterlimit:4;stroke-dasharray:none;stroke-opacity:1"
       id="circle5157"
       cx="778.21521"
       cy="338.7406"
       r="5.7771091" /></g><g
     id="g5173"
     transform="translate(1322.6938,486.69381)"
     style="fill:none;stroke:#000000;stroke-width:0.37795277;stroke-miterlimit:4;stroke-dasharray:none;stroke-opacity:1"><ellipse
       ry="5.7938247"
       rx="5.7938251"
       cy="-98.456253"
       cx="-874.33075"
       id="path5167"
       style="fill:none;stroke:#000000;stroke-width:0.37795277;stroke-miterlimit:4;stroke-dasharray:none;stroke-opacity:1" /><ellipse
       style="fill:none;stroke:#000000;stroke-width:0.37795277;stroke-miterlimit:4;stroke-dasharray:none;stroke-opacity:1"
       id="ellipse5169"
       cx="-411.33862"
       cy="222.80359"
       rx="5.7938251"
       ry="5.7938247" /></g></svg>