<?xml version="1.0" encoding="utf-8"?>
<!-- Generator: Adobe Illustrator 22.0.1, SVG Export Plug-In . SVG Version: 6.00 Build 0)  -->
<svg version="1.1" id="Layer_1" xmlns="http://www.w3.org/2000/svg" xmlns:xlink="http://www.w3.org/1999/xlink" x="0px" y="0px"
	 viewBox="0 0 1651.7 730.5" style="enable-background:new 0 0 1651.7 730.5;" xml:space="preserve">
<style type="text/css">
	.st0{fill:none;stroke:#000000;stroke-width:0.9;}
	.st1{fill:#FFFFFF;stroke:#000000;stroke-miterlimit:10;}
</style>
<g transform="translate(22.5000185, 22.5000185) ">
	<polygon class="st0" points="4,-4.5 23.8,-4.5 23.8,4 33.6,4 33.6,10 30.1,10 30.1,17 33.6,17 33.6,24.1 42.4,24.1 42.4,17 46,17 
		46,10 42.4,10 42.4,4 52.2,4 52.2,-4.5 69.2,-4.5 69.2,4 86.2,4 86.2,-4.5 103.2,-4.5 103.2,4 120.2,4 120.2,-4.5 137.2,-4.5 
		137.2,4 154.2,4 154.2,-4.5 171.2,-4.5 171.2,4 188.3,4 188.3,-4.5 205.3,-4.5 205.3,4 222.3,4 222.3,-4.5 239.3,-4.5 239.3,4 
		256.3,4 256.3,-4.5 273.3,-4.5 273.3,4 290.3,4 290.3,-4.5 307.3,-4.5 307.3,4 324.3,4 324.3,-4.5 341.3,-4.5 341.3,4 358.3,4 
		358.3,-4.5 375.3,-4.5 375.3,4 392.4,4 392.4,-4.5 409.4,-4.5 409.4,4 426.4,4 426.4,-4.5 443.4,-4.5 443.4,4 460.4,4 460.4,-4.5 
		477.4,-4.5 477.4,4 487.2,4 487.2,10 483.6,10 483.6,17 487.2,17 487.2,24.1 496,24.1 496,17 499.5,17 499.5,10 496,10 496,4 
		505.7,4 505.7,-4.5 525.6,-4.5 525.6,21.7 534.1,21.7 534.1,29.6 523.6,29.6 523.6,40.1 534.1,40.1 534.1,47.9 525.6,47.9 
		525.6,64.9 534.1,64.9 534.1,82 525.6,82 525.6,99 534.1,99 534.1,106.8 523.6,106.8 523.6,117.3 534.1,117.3 534.1,125.2 
		525.6,125.2 525.6,151.4 505.7,151.4 505.7,142.9 496,142.9 496,136.9 499.5,136.9 499.5,129.9 496,129.9 496,122.8 487.2,122.8 
		487.2,129.9 483.6,129.9 483.6,136.9 487.2,136.9 487.2,142.9 477.4,142.9 477.4,151.4 460.4,151.4 460.4,142.9 443.4,142.9 
		443.4,151.4 426.4,151.4 426.4,142.9 409.4,142.9 409.4,151.4 392.4,151.4 392.4,142.9 375.3,142.9 375.3,151.4 358.3,151.4 
		358.3,142.9 341.3,142.9 341.3,151.4 324.3,151.4 324.3,142.9 307.3,142.9 307.3,151.4 290.3,151.4 290.3,142.9 273.3,142.9 
		273.3,151.4 256.3,151.4 256.3,142.9 239.3,142.9 239.3,151.4 222.3,151.4 222.3,142.9 205.3,142.9 205.3,151.4 188.3,151.4 
		188.3,142.9 171.2,142.9 171.2,151.4 154.2,151.4 154.2,142.9 137.2,142.9 137.2,151.4 120.2,151.4 120.2,142.9 103.2,142.9 
		103.2,151.4 86.2,151.4 86.2,142.9 69.2,142.9 69.2,151.4 52.2,151.4 52.2,142.9 42.4,142.9 42.4,136.9 46,136.9 46,129.9 
		42.4,129.9 42.4,122.8 33.6,122.8 33.6,129.9 30.1,129.9 30.1,136.9 33.6,136.9 33.6,142.9 23.8,142.9 23.8,151.4 4,151.4 4,125.2 
		-4.5,125.2 -4.5,117.3 6,117.3 6,106.8 -4.5,106.8 -4.5,99 4,99 4,82 -4.5,82 -4.5,64.9 4,64.9 4,47.9 -4.5,47.9 -4.5,40.1 6,40.1 
		6,29.6 -4.5,29.6 -4.5,21.7 4,21.7 	"/>
</g>
<g transform="translate(695.7289185, 22.5000185) ">
	<polygon class="st0" points="-130.6,-4.5 -110.8,-4.5 -110.8,4 -101,4 -101,10 -104.6,10 -104.6,17 -101,17 -101,24.1 -92.2,24.1 
		-92.2,17 -88.7,17 -88.7,10 -92.2,10 -92.2,4 -82.5,4 -82.5,-4.5 -65.4,-4.5 -65.4,4 -48.4,4 -48.4,-4.5 -31.4,-4.5 -31.4,4 
		-14.4,4 -14.4,-4.5 2.6,-4.5 2.6,4 19.6,4 19.6,-4.5 36.6,-4.5 36.6,4 53.6,4 53.6,-4.5 70.6,-4.5 70.6,4 87.6,4 87.6,-4.5 
		104.6,-4.5 104.6,4 121.6,4 121.6,-4.5 138.6,-4.5 138.6,4 155.7,4 155.7,-4.5 172.7,-4.5 172.7,4 189.7,4 189.7,-4.5 206.7,-4.5 
		206.7,4 223.7,4 223.7,-4.5 240.7,-4.5 240.7,4 257.7,4 257.7,-4.5 274.7,-4.5 274.7,4 291.7,4 291.7,-4.5 308.7,-4.5 308.7,4 
		325.7,4 325.7,-4.5 342.7,-4.5 342.7,4 352.5,4 352.5,10 349,10 349,17 352.5,17 352.5,24.1 361.3,24.1 361.3,17 364.9,17 
		364.9,10 361.3,10 361.3,4 371.1,4 371.1,-4.5 390.9,-4.5 390.9,21.7 399.4,21.7 399.4,29.6 388.9,29.6 388.9,40.1 399.4,40.1 
		399.4,47.9 390.9,47.9 390.9,64.9 399.4,64.9 399.4,82 390.9,82 390.9,99 399.4,99 399.4,106.8 388.9,106.8 388.9,117.3 
		399.4,117.3 399.4,125.2 390.9,125.2 390.9,151.4 371.1,151.4 371.1,142.9 361.3,142.9 361.3,136.9 364.9,136.9 364.9,129.9 
		361.3,129.9 361.3,122.8 352.5,122.8 352.5,129.9 349,129.9 349,136.9 352.5,136.9 352.5,142.9 342.7,142.9 342.7,151.4 
		325.7,151.4 325.7,142.9 308.7,142.9 308.7,151.4 291.7,151.4 291.7,142.9 274.7,142.9 274.7,151.4 257.7,151.4 257.7,142.9 
		240.7,142.9 240.7,151.4 223.7,151.4 223.7,142.9 206.7,142.9 206.7,151.4 189.7,151.4 189.7,142.9 172.7,142.9 172.7,151.4 
		155.7,151.4 155.7,142.9 138.6,142.9 138.6,151.4 121.6,151.4 121.6,142.9 104.6,142.9 104.6,151.4 87.6,151.4 87.6,142.9 
		70.6,142.9 70.6,151.4 53.6,151.4 53.6,142.9 36.6,142.9 36.6,151.4 19.6,151.4 19.6,142.9 2.6,142.9 2.6,151.4 -14.4,151.4 
		-14.4,142.9 -31.4,142.9 -31.4,151.4 -48.4,151.4 -48.4,142.9 -65.4,142.9 -65.4,151.4 -82.5,151.4 -82.5,142.9 -92.2,142.9 
		-92.2,136.9 -88.7,136.9 -88.7,129.9 -92.2,129.9 -92.2,122.8 -101,122.8 -101,129.9 -104.6,129.9 -104.6,136.9 -101,136.9 
		-101,142.9 -110.8,142.9 -110.8,151.4 -130.6,151.4 -130.6,125.2 -139.1,125.2 -139.1,117.3 -128.7,117.3 -128.7,106.8 
		-139.1,106.8 -139.1,99 -130.6,99 -130.6,82 -139.1,82 -139.1,64.9 -130.6,64.9 -130.6,47.9 -139.1,47.9 -139.1,40.1 -128.7,40.1 
		-128.7,29.6 -139.1,29.6 -139.1,21.7 -130.6,21.7 	"/>
</g>
<g transform="translate(1368.9578185, 22.5000185) ">
	<polygon class="st0" points="-273.8,4 -245.4,4 -245.4,-4.5 -236.5,-4.5 -236.5,6 -226,6 -226,-4.5 -217.1,-4.5 -217.1,4 -200.1,4 
		-200.1,-4.5 -183.1,-4.5 -183.1,4 -166.1,4 -166.1,-4.5 -149.1,-4.5 -149.1,4 -132.1,4 -132.1,-4.5 -115.1,-4.5 -115.1,4 -98,4 
		-98,-4.5 -81,-4.5 -81,4 -64,4 -64,-4.5 -47,-4.5 -47,4 -30,4 -30,-4.5 -13,-4.5 -13,4 4,4 4,-4.5 21,-4.5 21,4 38,4 38,-4.5 
		55,-4.5 55,4 72,4 72,-4.5 89,-4.5 89,4 106.1,4 106.1,-4.5 123.1,-4.5 123.1,4 140.1,4 140.1,-4.5 157.1,-4.5 157.1,4 174.1,4 
		174.1,-4.5 191.1,-4.5 191.1,4 208.1,4 208.1,-4.5 217,-4.5 217,6 227.5,6 227.5,-4.5 236.4,-4.5 236.4,4 264.8,4 264.8,21.7 
		256.3,21.7 256.3,30.4 250.3,30.4 250.3,26.9 243.2,26.9 243.2,30.4 236.2,30.4 236.2,39.2 243.2,39.2 243.2,42.8 250.3,42.8 
		250.3,39.2 256.3,39.2 256.3,47.9 264.8,47.9 264.8,64.9 256.3,64.9 256.3,82 264.8,82 264.8,99 256.3,99 256.3,107.7 250.3,107.7 
		250.3,104.1 243.2,104.1 243.2,107.7 236.2,107.7 236.2,116.5 243.2,116.5 243.2,120 250.3,120 250.3,116.5 256.3,116.5 
		256.3,125.2 264.8,125.2 264.8,142.9 236.4,142.9 236.4,151.4 227.5,151.4 227.5,140.9 217,140.9 217,151.4 208.1,151.4 
		208.1,142.9 191.1,142.9 191.1,151.4 174.1,151.4 174.1,142.9 157.1,142.9 157.1,151.4 140.1,151.4 140.1,142.9 123.1,142.9 
		123.1,151.4 106.1,151.4 106.1,142.9 89,142.9 89,151.4 72,151.4 72,142.9 55,142.9 55,151.4 38,151.4 38,142.9 21,142.9 21,151.4 
		4,151.4 4,142.9 -13,142.9 -13,151.4 -30,151.4 -30,142.9 -47,142.9 -47,151.4 -64,151.4 -64,142.9 -81,142.9 -81,151.4 -98,151.4 
		-98,142.9 -115.1,142.9 -115.1,151.4 -132.1,151.4 -132.1,142.9 -149.1,142.9 -149.1,151.4 -166.1,151.4 -166.1,142.9 
		-183.1,142.9 -183.1,151.4 -200.1,151.4 -200.1,142.9 -217.1,142.9 -217.1,151.4 -226,151.4 -226,140.9 -236.5,140.9 -236.5,151.4 
		-245.4,151.4 -245.4,142.9 -273.8,142.9 -273.8,125.2 -265.3,125.2 -265.3,116.5 -259.3,116.5 -259.3,120 -252.2,120 -252.2,116.5 
		-245.2,116.5 -245.2,107.7 -252.2,107.7 -252.2,104.1 -259.3,104.1 -259.3,107.7 -265.3,107.7 -265.3,99 -273.8,99 -273.8,82 
		-265.3,82 -265.3,64.9 -273.8,64.9 -273.8,47.9 -265.3,47.9 -265.3,39.2 -259.3,39.2 -259.3,42.8 -252.2,42.8 -252.2,39.2 
		-245.2,39.2 -245.2,30.4 -252.2,30.4 -252.2,26.9 -259.3,26.9 -259.3,30.4 -265.3,30.4 -265.3,21.7 -273.8,21.7 	"/>
</g>
<g transform="translate(1368.9578185, 217.3820685) ">
	<polygon class="st0" points="-273.8,-35 -245.4,-35 -245.4,-43.5 -236.5,-43.5 -236.5,-33 -226,-33 -226,-43.5 -217.1,-43.5 
		-217.1,-35 -200.1,-35 -200.1,-43.5 -183.1,-43.5 -183.1,-35 -166.1,-35 -166.1,-43.5 -149.1,-43.5 -149.1,-35 -132.1,-35 
		-132.1,-43.5 -115.1,-43.5 -115.1,-35 -98,-35 -98,-43.5 -81,-43.5 -81,-35 -64,-35 -64,-43.5 -47,-43.5 -47,-35 -30,-35 
		-30,-43.5 -13,-43.5 -13,-35 4,-35 4,-43.5 21,-43.5 21,-35 38,-35 38,-43.5 55,-43.5 55,-35 72,-35 72,-43.5 89,-43.5 89,-35 
		106.1,-35 106.1,-43.5 123.1,-43.5 123.1,-35 140.1,-35 140.1,-43.5 157.1,-43.5 157.1,-35 174.1,-35 174.1,-43.5 191.1,-43.5 
		191.1,-35 208.1,-35 208.1,-43.5 217,-43.5 217,-33 227.5,-33 227.5,-43.5 236.4,-43.5 236.4,-35 264.8,-35 264.8,-17.3 
		256.3,-17.3 256.3,-8.5 250.3,-8.5 250.3,-12.1 243.2,-12.1 243.2,-8.5 236.2,-8.5 236.2,0.2 243.2,0.2 243.2,3.8 250.3,3.8 
		250.3,0.2 256.3,0.2 256.3,9 264.8,9 264.8,26 256.3,26 256.3,43 264.8,43 264.8,60 256.3,60 256.3,68.7 250.3,68.7 250.3,65.2 
		243.2,65.2 243.2,68.7 236.2,68.7 236.2,77.5 243.2,77.5 243.2,81 250.3,81 250.3,77.5 256.3,77.5 256.3,86.2 264.8,86.2 
		264.8,103.9 236.4,103.9 236.4,112.4 227.5,112.4 227.5,101.9 217,101.9 217,112.4 208.1,112.4 208.1,103.9 191.1,103.9 
		191.1,112.4 174.1,112.4 174.1,103.9 157.1,103.9 157.1,112.4 140.1,112.4 140.1,103.9 123.1,103.9 123.1,112.4 106.1,112.4 
		106.1,103.9 89,103.9 89,112.4 72,112.4 72,103.9 55,103.9 55,112.4 38,112.4 38,103.9 21,103.9 21,112.4 4,112.4 4,103.9 
		-13,103.9 -13,112.4 -30,112.4 -30,103.9 -47,103.9 -47,112.4 -64,112.4 -64,103.9 -81,103.9 -81,112.4 -98,112.4 -98,103.9 
		-115.1,103.9 -115.1,112.4 -132.1,112.4 -132.1,103.9 -149.1,103.9 -149.1,112.4 -166.1,112.4 -166.1,103.9 -183.1,103.9 
		-183.1,112.4 -200.1,112.4 -200.1,103.9 -217.1,103.9 -217.1,112.4 -226,112.4 -226,101.9 -236.5,101.9 -236.5,112.4 -245.4,112.4 
		-245.4,103.9 -273.8,103.9 -273.8,86.2 -265.3,86.2 -265.3,77.5 -259.3,77.5 -259.3,81 -252.2,81 -252.2,77.5 -245.2,77.5 
		-245.2,68.7 -252.2,68.7 -252.2,65.2 -259.3,65.2 -259.3,68.7 -265.3,68.7 -265.3,60 -273.8,60 -273.8,43 -265.3,43 -265.3,26 
		-273.8,26 -273.8,9 -265.3,9 -265.3,0.2 -259.3,0.2 -259.3,3.8 -252.2,3.8 -252.2,0.2 -245.2,0.2 -245.2,-8.5 -252.2,-8.5 
		-252.2,-12.1 -259.3,-12.1 -259.3,-8.5 -265.3,-8.5 -265.3,-17.3 -273.8,-17.3 	"/>
</g>
<g transform="translate(22.5000185, 217.3820685) ">
	<polygon class="st0" points="-4.5,-35 23.8,-35 23.8,-43.5 32.8,-43.5 32.8,-33 43.3,-33 43.3,-43.5 52.2,-43.5 52.2,-35 69.2,-35 
		69.2,-43.5 86.2,-43.5 86.2,-35 103.2,-35 103.2,-43.5 120.2,-43.5 120.2,-35 137.2,-35 137.2,-43.5 154.2,-43.5 154.2,-35 
		171.2,-35 171.2,-43.5 188.3,-43.5 188.3,-35 205.3,-35 205.3,-43.5 222.3,-43.5 222.3,-35 239.3,-35 239.3,-43.5 256.3,-43.5 
		256.3,-35 273.3,-35 273.3,-43.5 290.3,-43.5 290.3,-35 307.3,-35 307.3,-43.5 324.3,-43.5 324.3,-35 341.3,-35 341.3,-43.5 
		358.3,-43.5 358.3,-35 375.3,-35 375.3,-43.5 392.4,-43.5 392.4,-35 409.4,-35 409.4,-43.5 426.4,-43.5 426.4,-35 443.4,-35 
		443.4,-43.5 460.4,-43.5 460.4,-35 477.4,-35 477.4,-43.5 486.3,-43.5 486.3,-33 496.8,-33 496.8,-43.5 505.7,-43.5 505.7,-35 
		534.1,-35 534.1,-15.1 525.6,-15.1 525.6,-5.4 519.6,-5.4 519.6,-8.9 512.5,-8.9 512.5,-5.4 505.5,-5.4 505.5,3.4 512.5,3.4 
		512.5,7 519.6,7 519.6,3.4 525.6,3.4 525.6,13.2 534.1,13.2 534.1,30.2 525.6,30.2 525.6,47.2 534.1,47.2 534.1,64.2 525.6,64.2 
		525.6,81.2 534.1,81.2 534.1,98.3 525.6,98.3 525.6,115.3 534.1,115.3 534.1,132.3 525.6,132.3 525.6,149.3 534.1,149.3 
		534.1,166.3 525.6,166.3 525.6,183.3 534.1,183.3 534.1,200.3 525.6,200.3 525.6,217.3 534.1,217.3 534.1,234.3 525.6,234.3 
		525.6,251.3 534.1,251.3 534.1,268.3 525.6,268.3 525.6,285.3 534.1,285.3 534.1,302.4 525.6,302.4 525.6,319.4 534.1,319.4 
		534.1,336.4 525.6,336.4 525.6,353.4 534.1,353.4 534.1,370.4 525.6,370.4 525.6,387.4 534.1,387.4 534.1,404.4 525.6,404.4 
		525.6,421.4 534.1,421.4 534.1,438.4 525.6,438.4 525.6,448.2 519.6,448.2 519.6,444.6 512.5,444.6 512.5,448.2 505.5,448.2 
		505.5,457 512.5,457 512.5,460.5 519.6,460.5 519.6,457 525.6,457 525.6,466.8 534.1,466.8 534.1,486.6 505.7,486.6 505.7,495.1 
		496.8,495.1 496.8,484.6 486.3,484.6 486.3,495.1 477.4,495.1 477.4,486.6 460.4,486.6 460.4,495.1 443.4,495.1 443.4,486.6 
		426.4,486.6 426.4,495.1 409.4,495.1 409.4,486.6 392.4,486.6 392.4,495.1 375.3,495.1 375.3,486.6 358.3,486.6 358.3,495.1 
		341.3,495.1 341.3,486.6 324.3,486.6 324.3,495.1 307.3,495.1 307.3,486.6 290.3,486.6 290.3,495.1 273.3,495.1 273.3,486.6 
		256.3,486.6 256.3,495.1 239.3,495.1 239.3,486.6 222.3,486.6 222.3,495.1 205.3,495.1 205.3,486.6 188.3,486.6 188.3,495.1 
		171.2,495.1 171.2,486.6 154.2,486.6 154.2,495.1 137.2,495.1 137.2,486.6 120.2,486.6 120.2,495.1 103.2,495.1 103.2,486.6 
		86.2,486.6 86.2,495.1 69.2,495.1 69.2,486.6 52.2,486.6 52.2,495.1 43.3,495.1 43.3,484.6 32.8,484.6 32.8,495.1 23.8,495.1 
		23.8,486.6 -4.5,486.6 -4.5,466.8 4,466.8 4,457 10,457 10,460.5 17,460.5 17,457 24.1,457 24.1,448.2 17,448.2 17,444.6 10,444.6 
		10,448.2 4,448.2 4,438.4 -4.5,438.4 -4.5,421.4 4,421.4 4,404.4 -4.5,404.4 -4.5,387.4 4,387.4 4,370.4 -4.5,370.4 -4.5,353.4 
		4,353.4 4,336.4 -4.5,336.4 -4.5,319.4 4,319.4 4,302.4 -4.5,302.4 -4.5,285.3 4,285.3 4,268.3 -4.5,268.3 -4.5,251.3 4,251.3 
		4,234.3 -4.5,234.3 -4.5,217.3 4,217.3 4,200.3 -4.5,200.3 -4.5,183.3 4,183.3 4,166.3 -4.5,166.3 -4.5,149.3 4,149.3 4,132.3 
		-4.5,132.3 -4.5,115.3 4,115.3 4,98.3 -4.5,98.3 -4.5,81.2 4,81.2 4,64.2 -4.5,64.2 -4.5,47.2 4,47.2 4,30.2 -4.5,30.2 -4.5,13.2 
		4,13.2 4,3.4 10,3.4 10,7 17,7 17,3.4 24.1,3.4 24.1,-5.4 17,-5.4 17,-8.9 10,-8.9 10,-5.4 4,-5.4 4,-15.1 -4.5,-15.1 	"/>
</g>
<g transform="translate(695.7289185, 217.3820685) ">
	<polygon class="st0" points="-139.1,-35 -110.8,-35 -110.8,-43.5 -101.9,-43.5 -101.9,-33 -91.4,-33 -91.4,-43.5 -82.5,-43.5 
		-82.5,-35 -65.4,-35 -65.4,-43.5 -48.4,-43.5 -48.4,-35 -31.4,-35 -31.4,-43.5 -14.4,-43.5 -14.4,-35 2.6,-35 2.6,-43.5 
		19.6,-43.5 19.6,-35 36.6,-35 36.6,-43.5 53.6,-43.5 53.6,-35 70.6,-35 70.6,-43.5 87.6,-43.5 87.6,-35 104.6,-35 104.6,-43.5 
		121.6,-43.5 121.6,-35 138.6,-35 138.6,-43.5 155.7,-43.5 155.7,-35 172.7,-35 172.7,-43.5 189.7,-43.5 189.7,-35 206.7,-35 
		206.7,-43.5 223.7,-43.5 223.7,-35 240.7,-35 240.7,-43.5 257.7,-43.5 257.7,-35 274.7,-35 274.7,-43.5 291.7,-43.5 291.7,-35 
		308.7,-35 308.7,-43.5 325.7,-43.5 325.7,-35 342.7,-35 342.7,-43.5 351.7,-43.5 351.7,-33 362.2,-33 362.2,-43.5 371.1,-43.5 
		371.1,-35 399.4,-35 399.4,-15.1 390.9,-15.1 390.9,-5.4 385,-5.4 385,-8.9 377.9,-8.9 377.9,-5.4 370.8,-5.4 370.8,3.4 377.9,3.4 
		377.9,7 385,7 385,3.4 390.9,3.4 390.9,13.2 399.4,13.2 399.4,30.2 390.9,30.2 390.9,47.2 399.4,47.2 399.4,64.2 390.9,64.2 
		390.9,81.2 399.4,81.2 399.4,98.3 390.9,98.3 390.9,115.3 399.4,115.3 399.4,132.3 390.9,132.3 390.9,149.3 399.4,149.3 
		399.4,166.3 390.9,166.3 390.9,183.3 399.4,183.3 399.4,200.3 390.9,200.3 390.9,217.3 399.4,217.3 399.4,234.3 390.9,234.3 
		390.9,251.3 399.4,251.3 399.4,268.3 390.9,268.3 390.9,285.3 399.4,285.3 399.4,302.4 390.9,302.4 390.9,319.4 399.4,319.4 
		399.4,336.4 390.9,336.4 390.9,353.4 399.4,353.4 399.4,370.4 390.9,370.4 390.9,387.4 399.4,387.4 399.4,404.4 390.9,404.4 
		390.9,421.4 399.4,421.4 399.4,438.4 390.9,438.4 390.9,448.2 385,448.2 385,444.6 377.9,444.6 377.9,448.2 370.8,448.2 370.8,457 
		377.9,457 377.9,460.5 385,460.5 385,457 390.9,457 390.9,466.8 399.4,466.8 399.4,486.6 371.1,486.6 371.1,495.1 362.2,495.1 
		362.2,484.6 351.7,484.6 351.7,495.1 342.7,495.1 342.7,486.6 325.7,486.6 325.7,495.1 308.7,495.1 308.7,486.6 291.7,486.6 
		291.7,495.1 274.7,495.1 274.7,486.6 257.7,486.6 257.7,495.1 240.7,495.1 240.7,486.6 223.7,486.6 223.7,495.1 206.7,495.1 
		206.7,486.6 189.7,486.6 189.7,495.1 172.7,495.1 172.7,486.6 155.7,486.6 155.7,495.1 138.6,495.1 138.6,486.6 121.6,486.6 
		121.6,495.1 104.6,495.1 104.6,486.6 87.6,486.6 87.6,495.1 70.6,495.1 70.6,486.6 53.6,486.6 53.6,495.1 36.6,495.1 36.6,486.6 
		19.6,486.6 19.6,495.1 2.6,495.1 2.6,486.6 -14.4,486.6 -14.4,495.1 -31.4,495.1 -31.4,486.6 -48.4,486.6 -48.4,495.1 -65.4,495.1 
		-65.4,486.6 -82.5,486.6 -82.5,495.1 -91.4,495.1 -91.4,484.6 -101.9,484.6 -101.9,495.1 -110.8,495.1 -110.8,486.6 -139.1,486.6 
		-139.1,466.8 -130.6,466.8 -130.6,457 -124.7,457 -124.7,460.5 -117.6,460.5 -117.6,457 -110.5,457 -110.5,448.2 -117.6,448.2 
		-117.6,444.6 -124.7,444.6 -124.7,448.2 -130.6,448.2 -130.6,438.4 -139.1,438.4 -139.1,421.4 -130.6,421.4 -130.6,404.4 
		-139.1,404.4 -139.1,387.4 -130.6,387.4 -130.6,370.4 -139.1,370.4 -139.1,353.4 -130.6,353.4 -130.6,336.4 -139.1,336.4 
		-139.1,319.4 -130.6,319.4 -130.6,302.4 -139.1,302.4 -139.1,285.3 -130.6,285.3 -130.6,268.3 -139.1,268.3 -139.1,251.3 
		-130.6,251.3 -130.6,234.3 -139.1,234.3 -139.1,217.3 -130.6,217.3 -130.6,200.3 -139.1,200.3 -139.1,183.3 -130.6,183.3 
		-130.6,166.3 -139.1,166.3 -139.1,149.3 -130.6,149.3 -130.6,132.3 -139.1,132.3 -139.1,115.3 -130.6,115.3 -130.6,98.3 
		-139.1,98.3 -139.1,81.2 -130.6,81.2 -130.6,64.2 -139.1,64.2 -139.1,47.2 -130.6,47.2 -130.6,30.2 -139.1,30.2 -139.1,13.2 
		-130.6,13.2 -130.6,3.4 -124.7,3.4 -124.7,7 -117.6,7 -117.6,3.4 -110.5,3.4 -110.5,-5.4 -117.6,-5.4 -117.6,-8.9 -124.7,-8.9 
		-124.7,-5.4 -130.6,-5.4 -130.6,-15.1 -139.1,-15.1 	"/>
</g>
<g>
	<circle class="st1" cx="698.8" cy="96" r="53.9"/>
	<circle class="st1" cx="744.2" cy="141.3" r="5"/>
	<circle class="st1" cx="744.2" cy="50.6" r="5"/>
	<circle class="st1" cx="653.5" cy="50.6" r="5"/>
	<circle class="st1" cx="653.5" cy="141.3" r="5"/>
</g>
<g>
	<circle class="st1" cx="901.6" cy="95.2" r="5"/>
	<circle class="st1" cx="1043.3" cy="95.2" r="5"/>
	<path class="st1" d="M920.4,55.7h103.9c4.8,0,8.8,4,8.8,8.8v62.9c0,4.8-4,8.8-8.8,8.8H920.4c-4.8,0-8.8-4-8.8-8.8V64.5
		C911.6,59.7,915.6,55.7,920.4,55.7z"/>
</g>
</svg>
