<?xml version="1.0" encoding="utf-8"?>
<!-- Generator: Adobe Illustrator 22.0.0, SVG Export Plug-In . SVG Version: 6.00 Build 0)  -->
<svg version="1.1" id="Layer_1" xmlns="http://www.w3.org/2000/svg" xmlns:xlink="http://www.w3.org/1999/xlink" x="0px" y="0px"
	 viewBox="0 0 159.5 55.3" style="enable-background:new 0 0 159.5 55.3;" xml:space="preserve">
<style type="text/css">
	.st0{stroke:#000000;stroke-width:0.25;stroke-miterlimit:10;}
	.st1{fill:#FFFFFF;}
	.st2{stroke:#FFFFFF;stroke-width:0.25;stroke-miterlimit:10;}
</style>
<path class="st0" d="M14.2,9.4l6.4-3.9c0.5-0.3,0.8-0.4,1.2-0.3c0-0.3,0.2-0.8,0.7-1l6-3.7c0.4-0.3,0.8-0.2,1.1,0L36,6.1
	c0.3,0.4,0.2,0.7,0.1,0.9C36.5,7,36.9,7,37.3,7.3l6.5,5.6c0.4,0.3,0.4,1,0.3,1.3c0.3-0.2,0.9-0.1,1.3,0.2l6.8,6.2
	c0.3,0.2,0.4,0.7,0.1,1.3l-3,6.1c-0.1,0.1-0.1,0.2-0.3,0.3c0.2,0,0.2,0.3,0.1,0.5l-2.4,4.8c-0.1,0.2-0.4,0.4-0.6,0.6
	c0.2,0,0.2,0.2,0.1,0.4l-1.8,3.9c-0.1,0.2-0.2,0.4-0.5,0.6L38.6,43c-0.1,0-0.2,0.2-0.3,0c0,0.3-0.1,0.4-0.3,0.6l-3.3,2.6L10.9,34.4
	l2.6-23.7C13.5,9.9,13.9,9.6,14.2,9.4L14.2,9.4z"/>
<path class="st1" d="M51.8,22.4l-2.5,5.1c-0.1,0.2-0.4,0.5-0.5,0.6l-4.3,3.1c-0.2,0.2-0.3,0-0.2-0.4L46,27c0.1-0.3,0.3-0.6,0.6-0.8
	l5-3.8C51.8,22.1,51.9,22.2,51.8,22.4L51.8,22.4z"/>
<path class="st1" d="M44.7,28l-2.2,4.7c-0.1,0.2-0.3,0.3-0.4,0.4l-5.2,4.1c-0.3,0.3-0.4-0.1-0.2-0.4l1.6-3.8
	c0.1-0.3,0.3-0.6,0.5-0.8l5.4-4.2C44.5,27.9,44.8,27.8,44.7,28L44.7,28z"/>
<path class="st1" d="M48.8,28.8l-2.2,4.4c-0.1,0.2-0.2,0.3-0.3,0.4l-4.7,3.5c-0.4,0.3-0.4,0.1-0.2-0.3l1.8-3.8
	c0.1-0.3,0.3-0.6,0.5-0.7l4.7-3.6C48.7,28.6,48.9,28.6,48.8,28.8L48.8,28.8z"/>
<path class="st1" d="M41.9,34.2l-2,4.3c-0.1,0.2-0.3,0.3-0.7,0.6L34,43.4l1.7-4.3c0.1-0.3,0.3-0.6,0.6-0.8l5.2-4.1
	C41.6,34.1,42,34,41.9,34.2L41.9,34.2z"/>
<path class="st1" d="M39.2,40.2L38,43.1c0,0.1-0.1,0.3-0.3,0.4l-3.8,3l-1.8-1l6.7-5.3C39.2,39.8,39.3,40.1,39.2,40.2L39.2,40.2z"/>
<path class="st1" d="M45.9,34.7L44,38.5c-0.1,0.2-0.5,0.5-0.7,0.6L39,42.4c-0.1,0.1-0.3,0.1-0.2-0.1l1.6-3.4
	c0.1-0.3,0.4-0.6,0.6-0.8l4.4-3.4C45.7,34.6,46,34.5,45.9,34.7L45.9,34.7z"/>
<path class="st2" d="M23,4.4l5.9-3.7c0.2-0.1,0.4-0.1,0.6,0l5.7,4.9c0.2,0.2,0.2,0.6,0,0.7l-5.5,3.7c-0.2,0.1-0.6,0.1-0.8,0L23,4.9
	C22.8,4.8,22.8,4.5,23,4.4L23,4.4z"/>
<path class="st2" d="M39.1,18.7l5.2-4c0.2-0.2,0.7-0.1,0.8,0l6.2,5.5c0.2,0.1,0.2,0.6,0.1,0.7l-5.3,4c-0.2,0.1-0.8,0.1-1,0L39,19.4
	C38.9,19.2,38.9,18.8,39.1,18.7L39.1,18.7z"/>
<path class="st2" d="M31.1,11.6l5.4-3.7c0.2-0.1,0.7-0.1,0.8,0l5.8,5c0.3,0.2,0.2,0.7,0.1,0.8l-5.3,3.8c-0.4,0.3-0.8,0.2-1-0.1
	l-5.8-5.2C30.9,12,30.9,11.7,31.1,11.6L31.1,11.6z"/>
<path class="st2" d="M15,9.5l6-3.7c0.4-0.2,0.7-0.2,1,0l5.5,4.9c0.3,0.3,0.3,0.8,0,1L22,15.5c-0.4,0.3-0.9,0.1-1.2-0.1l-5.7-5.2
	C15,10,14.8,9.6,15,9.5L15,9.5z"/>
<path class="st2" d="M23.3,16.7l5.6-3.8c0.2-0.1,0.7-0.1,0.8,0l5.7,5c0.5,0.4,0.5,1,0.2,1.2l-6.4,4.6l-6-6
	C22.8,17.3,23,16.9,23.3,16.7L23.3,16.7z"/>
<path class="st2" d="M31.7,24.5l5.6-4.1c0.2-0.1,0.7-0.1,0.8,0l6,5.5c0.3,0.2,0.2,0.7,0.1,0.8L38.6,31c-0.4,0.3-0.7,0.2-1-0.1
	l-5.9-5.5C31.4,25.1,31.4,24.7,31.7,24.5L31.7,24.5z"/>
<path class="st0" d="M34.9,42.2c-0.1-0.7-0.4-1.3-0.4-1.3s0.5-0.4,0.2-1.5l-3.6-16.1c-0.2-1.1-0.6-1.8-2-2.3L9,13.4
	c-0.2-0.2-1.2-0.4-1.8,0l-6.3,3.9c-0.5,0.3-0.9,0.7-0.5,2.1l2.2,6.7c0.2,0.5,1,0.8,1,0.8s-0.6,0.4-0.3,1.3L5.5,35
	c0.1,0.4,0.6,0.7,0.6,0.7s-0.4,0.2-0.2,0.8L7.8,42c0.2,0.6,0.3,1.2,0.9,1.6l5.2,3.1c0.6,0.3,0.7-0.2,0.7-0.2s-0.1,0.4,0.5,0.8
	l5.8,3.4c0.8,0.5,1.3-0.1,1.3-0.1s-0.3,0.5,0.6,1l5.7,3.3c0.5,0.3,1,0.3,1.5-0.1l6-4.8c0.4-0.3,0.5-0.5,0.3-1.4L34.9,42.2L34.9,42.2
	z"/>
<path class="st2" d="M30.3,23.6l1.4,6.5c0.1,0.4,0,1.1-0.3,1.3l-5.8,4.2c-0.6,0.5-1,0-1.1-0.3l-1.7-6.9c-0.1-0.6,0.2-1,0.5-1.2
	l5.9-4C29.6,23.1,30.2,23,30.3,23.6L30.3,23.6z"/>
<path class="st2" d="M32.6,33.2l1.4,6.4c0.1,0.4-0.2,1-0.4,1.2l-5.2,4c-0.4,0.3-1.1,0.3-1.2-0.1l-1.6-6.6c-0.1-0.6,0.3-1.1,0.5-1.3
	l5.5-3.9C32,32.7,32.5,32.7,32.6,33.2L32.6,33.2z"/>
<path class="st2" d="M34.6,42.6l1.3,6.1c0.1,0.4-0.1,0.9-0.3,1.1l-5.3,4.2c-0.6,0.5-0.9,0.2-1-0.2l-1.5-6.2
	c-0.1-0.5,0.3-0.9,0.6-1.1l5.2-4C34,42.1,34.5,42,34.6,42.6L34.6,42.6z"/>
<path class="st1" d="M15.7,22.9l5.8-4.1c0.3-0.2,0.9-0.2,1.3,0l5.9,2.3c0.4,0.2,0.4,0.5,0.1,0.7L22.7,26c-0.5,0.3-1,0.3-1.4,0.2
	l-5.5-2.2C15.3,23.7,15.2,23.3,15.7,22.9L15.7,22.9z"/>
<path class="st1" d="M8.2,19.9l5.8-3.8c0.3-0.2,0.8-0.2,1.3,0l4.9,1.9c0.5,0.2,0.3,0.6,0.1,0.8l-5.7,3.9c-0.5,0.3-1,0.4-1.4,0.3
	l-5-2C7.6,20.6,7.5,20.3,8.2,19.9L8.2,19.9z"/>
<path class="st1" d="M1.5,17.3l5.7-3.6c0.5-0.3,1-0.3,1.4-0.2l4,1.6c0.5,0.2,0.4,0.6,0.1,0.7L7,19.6c-0.5,0.3-0.7,0.3-1.1,0.1
	l-4.5-1.8C1,17.7,1.2,17.5,1.5,17.3L1.5,17.3z"/>
<path class="st1" d="M18,35.8l1.6,6.2c0.1,0.4,0.5,0.8,1,1.1l4.9,2.3c0.5,0.2,1,0.4,0.7-0.6l-1.6-6.2c-0.1-0.6-0.6-0.7-0.9-0.9
	l-5.1-2.5C18.3,35,17.8,35.1,18,35.8L18,35.8z"/>
<path class="st1" d="M14.8,25.9l1.8,6.2c0.1,0.4,0.3,0.9,1.1,1.2l5,2.3c0.5,0.2,0.9,0.3,0.6-0.7l-1.7-6.4c-0.1-0.6-0.3-0.9-0.8-1.1
	l-5.5-2.4C14.7,24.8,14.5,25.1,14.8,25.9L14.8,25.9z"/>
<path class="st1" d="M20.5,45l1.3,4.8c0.1,0.4,0.3,1.2,0.8,1.5l5.2,3c0.4,0.3,0.7-0.2,0.4-1L27,47.9c-0.1-0.5-0.5-0.9-0.8-1L21,44.4
	C20.6,44.2,20.4,44.3,20.5,45L20.5,45z"/>
<path class="st1" d="M7.6,23.1l1.8,5.7c0.1,0.4,0.4,1.1,1.2,1.4l4.3,2c0.5,0.2,0.9,0.2,0.6-0.8l-1.7-5.6c-0.2-0.5-0.4-1.2-0.9-1.4
	l-4.6-2C7.6,22.2,7.3,22.3,7.6,23.1L7.6,23.1z"/>
<path class="st1" d="M0.9,20.1l1.7,5.4c0.2,0.6,0.3,0.9,0.8,1.2l4.2,1.8c0.6,0.2,0.6-0.1,0.3-1l-1.5-5c-0.2-0.5-0.5-1.1-0.9-1.3
	l-3.9-1.6C0.9,19.2,0.6,19.3,0.9,20.1L0.9,20.1z"/>
<path class="st1" d="M10.8,32.6l1.5,5.3c0.1,0.4,0.4,0.8,1.1,1.2l4.3,2.3c0.4,0.2,0.7,0,0.5-0.5l-1.4-5.5c-0.1-0.5-0.2-1-0.7-1.3
	l-4.7-2.3C10.7,31.5,10.5,31.8,10.8,32.6L10.8,32.6z"/>
<path class="st1" d="M3.8,29l1.7,5.5c0.2,0.6,0.3,0.8,1,1.1l3.8,1.9c0.4,0.2,0.6,0,0.4-0.6l-1.6-5.7C9,30.7,8.8,30.2,8.3,30L4.2,28
	C3.7,27.8,3.6,28.2,3.8,29L3.8,29z"/>
<path class="st1" d="M13,41.3l1.4,4.8c0.1,0.4,0.5,0.8,1.1,1.2l4.3,2.5c0.4,0.3,0.8,0.1,0.6-0.4l-1.4-5.2c-0.1-0.5-0.3-0.9-0.7-1.2
	l-4.7-2.5C12.7,40,12.8,40.5,13,41.3L13,41.3z"/>
<path class="st1" d="M6.5,37.5L8,42.2c0.1,0.4,0.3,0.8,0.9,1.2l4.1,2.4c0.4,0.3,0.7,0,0.6-0.5l-1.6-5.1c-0.1-0.5-0.4-0.8-0.9-1.1
	L7,36.8C6.3,36.4,6.2,36.7,6.5,37.5L6.5,37.5z"/>
<path class="st0" d="M73.2,17.1l7.5,0.2c-0.5,3.9-1.8,6.9-4,9s-5,3.2-8.6,3.2c-3.6,0-6.6-1.2-9-3.6s-3.6-5.4-3.6-8.9
	c0-3.6,1.2-6.6,3.7-9s5.5-3.7,9.1-3.7c3.5,0,6.5,1.2,8.9,3.6c1.6,1.7,2.8,4,3.5,6.9L73,15.2c-0.9-2.6-2.5-3.9-4.9-3.9
	c-1.5,0-2.8,0.5-3.8,1.6s-1.5,2.4-1.5,4c0,1.6,0.5,2.9,1.5,3.9s2.2,1.5,3.7,1.5c1.5,0,2.7-0.5,3.6-1.4S73,18.8,73.2,17.1z"/>
<path class="st0" d="M83.6,11.5h6.6v9.9c0,1,0.4,1.5,1.2,1.5c0.8,0,1.2-0.5,1.2-1.5v-9.9h6.6v9.8c0,2.3-0.8,4.2-2.3,5.8
	s-3.4,2.3-5.6,2.3c-2.5,0-4.5-0.9-6-2.7c-1.2-1.4-1.8-3.4-1.8-5.9V11.5z"/>
<path class="st0" d="M109.2,4.8v14.4c0,2.3,0.8,3.5,2.5,3.5c0.7,0,1.3-0.2,1.8-0.7s0.7-1.1,0.7-1.8c0-0.7-0.2-1.3-0.7-1.8
	s-1-0.7-1.7-0.7c-0.5,0-1,0.2-1.7,0.6V11c0.8-0.1,1.4-0.1,1.8-0.1c2.5,0,4.6,0.9,6.4,2.7s2.6,3.9,2.6,6.4c0,2.6-0.9,4.7-2.7,6.5
	s-4,2.6-6.6,2.6c-1.3,0-2.6-0.3-3.8-0.9s-2.3-1.3-3.1-2.3c-1.4-1.7-2.1-3.9-2.1-6.6V4.8H109.2z"/>
<path class="st0" d="M141.1,21.1h-10c-0.2-0.5-0.2-1-0.2-1.4c0-0.6,0.1-1.2,0.3-1.7h3.3c-0.2-1.3-1-2-2.2-2c-0.8,0-1.5,0.3-2,1
	s-0.8,1.6-0.8,2.7c0,1.1,0.2,2.1,0.7,2.8s1.2,1.1,2,1.1c0.7,0,1.3-0.3,1.9-1l3.7,4.5c-1.7,1.4-3.7,2.1-5.8,2.1
	c-2.6,0-4.8-0.9-6.6-2.6s-2.7-3.9-2.7-6.5c0-2.6,0.9-4.7,2.7-6.5s4-2.7,6.6-2.7c2.5,0,4.7,0.9,6.4,2.6s2.6,3.9,2.6,6.4
	C141.1,20.1,141.1,20.5,141.1,21.1z"/>
<path class="st0" d="M146.1,36.5v-5.7c0.9,0.4,1.7,0.6,2.3,0.6c2.1,0,3.5-1.2,4.1-3.6c-1.1,0.7-2.3,1-3.4,1c-1.6,0-3-0.6-4-1.8
	s-1.6-2.8-1.6-4.6v-11h6.6v9.4c0,1,0.4,1.6,1.3,1.6c0.8,0,1.2-0.6,1.2-1.7v-9.3h6.6v15.6c0,2.9-0.8,5.3-2.5,7.1
	c-2,2.1-4.3,3.2-7.1,3.2C148.5,37.2,147.3,37,146.1,36.5z"/>
</svg>
