<?xml version="1.0" encoding="utf-8"?>
<!-- Generator: Adobe Illustrator 22.0.0, SVG Export Plug-In . SVG Version: 6.00 Build 0)  -->
<svg version="1.1" id="Layer_1" xmlns="http://www.w3.org/2000/svg" xmlns:xlink="http://www.w3.org/1999/xlink" x="0px" y="0px"
	 viewBox="0 0 480 500" style="enable-background:new 0 0 480 500;" xml:space="preserve">
<style type="text/css">
	.st0{opacity:0.7;}
	.st1{fill:#FFFFFF;}
	.st2{opacity:0.9;}
</style>
<path d="M135.1,89.9l55.7-34.2c4.6-2.8,6.9-3.1,10.1-2.6c-0.1-3,2.1-6.7,5.9-9.1l52.7-32.8c3.5-2.2,6.9-2,9.3,0l57.4,49.8
	c2.9,3.2,2.1,5.7,0.6,8.3c3.5-0.9,7.4-0.9,10.9,2.1l56.9,49.4c3.3,2.8,3.7,8.5,2.8,11.8c2.4-1.5,7.9-1.1,11,1.7l59.8,54
	c2.3,2.1,3.2,5.9,0.8,11l-26.4,53.9c-0.7,1.2-1.3,1.5-3,2.5c1.9-0.1,1.4,2.5,0.7,4.1l-20.6,41.8c-1.1,2.1-3.4,3.9-5.6,5.1
	c1.7,0.2,2,1.9,1.2,3.4l-16.2,34.6c-0.8,1.7-1.9,3.4-4.2,5.5l-46.1,34.1c-0.8,0.3-1.5,1.6-2.9,0.1c0.2,2.3-1,3.5-2.9,5.3l-28.5,22.7
	L105.9,309l22.4-207.9C129.1,93.8,132.1,91.7,135.1,89.9L135.1,89.9z"/>
<g class="st0">
	<path class="st1" d="M464.6,204.1L442.5,249c-0.8,1.6-3.2,4.4-4.3,5.2l-37.6,27.6c-2.1,1.6-3-0.3-1.6-3.5l14.4-34.3
		c1.3-2.9,2.8-5.6,5-7.4l43.4-33.5C464.2,201.2,465.6,201.9,464.6,204.1L464.6,204.1z"/>
	<path class="st1" d="M402,253l-19.4,41.4c-0.7,1.5-2.4,2.9-3.8,3.9l-45.6,35.9c-2.8,2.2-3.2-0.5-1.8-3.7l14.1-33.2
		c1.2-2.8,2.6-5.1,4.8-6.8l47.6-37.2C400.2,251.6,403,250.9,402,253L402,253z"/>
	<path class="st1" d="M438.4,260l-19,38.8c-0.7,1.5-1.4,2.7-2.7,3.7l-41.4,31.1c-3.2,2.4-3.5,0.9-2-2.3l16.2-33.7
		c1.2-2.6,2.5-4.9,4.6-6.5l41.2-31.3C437.4,258.2,439.3,258,438.4,260L438.4,260z"/>
	<path class="st1" d="M377.3,307.5l-17.8,38c-0.7,1.5-2.4,2.8-5.8,5.5l-45.5,36.6l14.5-37.4c1-2.7,3-5.1,5.1-6.8l45.2-35.7
		C375.1,306.2,378.2,305.5,377.3,307.5L377.3,307.5z"/>
	<path class="st1" d="M354.1,360.1l-10.7,25c-0.3,1.1-1.2,2.5-2.2,3.2l-33.6,26.2l-16.1-8.9l58.8-46.8
		C353.7,356.1,354.7,358.7,354.1,360.1L354.1,360.1z"/>
	<path class="st1" d="M412.3,311.9l-16,33.2c-0.7,1.4-4.5,4.5-5.7,5.5l-38.2,28.1c-1.3,0.6-2.2,0.8-1.4-0.8l13.8-30
		c1.1-2.5,3.3-5.1,5.3-6.6l38.9-29.5C411.1,310.3,413.2,310,412.3,311.9L412.3,311.9z"/>
</g>
<g>
	<path class="st1" d="M212,45.8l51.3-32.5c1.9-1.2,3.7-0.6,4.9,0.4L318.5,57c2,1.8,1.9,5.1-0.4,6.3l-48.4,32.3
		c-1.7,1.2-5.3,1.2-6.7,0l-51.4-45.1C210.1,49.3,210.4,47,212,45.8L212,45.8z"/>
	<path class="st1" d="M353.1,171.2l46-34.8c1.8-1.4,6.1-0.9,7.3,0.1l54.7,48.5c1.4,1.2,2.1,5.3,0.6,6.5l-46.8,34.7
		c-1.6,1.3-6.6,1.3-8.4-0.3l-54.2-48.8C351,175.8,351.5,172.4,353.1,171.2L353.1,171.2z"/>
	<path class="st1" d="M283,108.8l47.6-32.6c1.9-1.3,6.1-1.1,7.3-0.1l50.7,43.8c2.3,2,2.1,5.9,0.6,7.1l-46.4,33.4
		c-3.3,2.3-6.6,1.5-9.1-0.7l-50.9-45.8C281.4,112.6,281.4,109.9,283,108.8L283,108.8z"/>
	<path class="st1" d="M141.9,90.7l52.3-32.6c3.2-2.1,6.2-1.6,8.5,0.4l48.2,42.8c2.6,2.3,2.7,7,0,8.9l-47.6,33
		c-3.2,2.3-8.3,1.3-10.7-0.9l-49.8-46C141.5,95,140.3,91.8,141.9,90.7L141.9,90.7z"/>
	<path class="st1" d="M214.4,154.2l49-33.6c1.8-1.2,6-1.1,7.1-0.1l49.6,43.4c4.3,3.8,4.1,8.9,1.5,10.8L265.8,215L213,162.1
		C210.2,159.4,212.2,155.7,214.4,154.2L214.4,154.2z"/>
	<path class="st1" d="M288.4,221.9l48.8-36.1c1.8-1.3,6-1.1,7.1-0.1l52.8,48.6c2.2,2,2.1,5.7,0.6,6.9l-48.9,38
		c-3.1,2.4-6.5,1.5-8.9-0.7l-51.8-48.3C285.6,227.8,286,223.7,288.4,221.9L288.4,221.9z"/>
</g>
<path d="M316.5,377.7c-1.2-5.7-3.5-11-3.5-11s4.1-3.8,2-13.2l-31.3-141.4c-2.1-9.5-5.1-15.9-17.3-20.5L89.6,124.7
	c-1.9-1.4-10.2-3.3-15.8,0.2l-55.3,34.3c-4.1,2.5-8.3,6.5-4.4,18.5l19,58.5c1.5,4.7,8.9,7.2,8.9,7.2s-4.9,3.9-2.4,11.8l19.1,58.9
	c0.9,3.8,5.6,6.1,5.6,6.1s-3.7,1.5-1.8,7.2l15.8,47.9c1.6,4.9,3,10.5,8.2,13.6l46,27.2c4.9,2.8,5.9-1.5,5.9-1.5s-0.5,3.6,4.7,7.1
	l50.5,30c7.1,4.2,11-1.2,11-1.2s-2.9,4.2,5.3,9l49.7,29c4.6,2.7,8.6,2.2,12.8-1.1l52.8-41.9c3.4-2.7,4.2-4.5,2.6-12.7L316.5,377.7
	L316.5,377.7z"/>
<g class="st2">
	<path class="st1" d="M276,214.7l12.2,57.3c0.8,3.7-0.4,9.6-2.6,11.3l-51,37.2c-5.6,4.1-8.6-0.1-9.3-3l-15.1-60.4
		c-1.3-5.2,1.8-8.8,4.3-10.5l52.1-35.1C269.4,209.6,274.9,209.4,276,214.7L276,214.7z"/>
	<path class="st1" d="M296.1,298.8l12.1,56.5c0.8,3.5-1.5,8.8-3.6,10.5L259,401.1c-3.5,2.8-9.9,2.7-10.9-1.3l-13.8-57.9
		c-1.2-4.9,2.3-9.5,4.7-11.2l48.5-34.4C290.7,293.9,295,293.8,296.1,298.8L296.1,298.8z"/>
	<path class="st1" d="M313.7,380.7l11.6,53.5c0.7,3.4-0.6,7.8-2.6,9.4l-46.1,36.5c-5.1,4-8.1,2.1-9.1-1.8l-12.9-54.6
		c-1.2-4.8,2.7-8.1,5-9.8l45.6-35.1C308.3,376.4,312.6,375.8,313.7,380.7L313.7,380.7z"/>
</g>
<g>
	<path class="st1" d="M147.6,208.5l51.1-35.9c3-2,7.9-1.6,11.6,0.1l51.5,20c3.4,1.5,3.6,4.8,1.2,6.4l-54.1,36.2
		c-4.3,2.9-8.7,3-12.3,1.4l-47.9-19.5C144.2,215.2,143.2,211.4,147.6,208.5L147.6,208.5z"/>
	<path class="st1" d="M81.8,181.5l50.4-33.7c3-1.9,7.3-1.6,11-0.1l43.1,16.4c4.8,1.9,3,5.3,0.6,6.9L137,204.9
		c-4.2,2.9-8.5,3.9-12,2.3l-43.6-17.1C77.1,188.1,76.5,185,81.8,181.5L81.8,181.5z"/>
	<path class="st1" d="M23.5,159.4L73.4,128c4.3-2.7,9.1-3,12.6-1.5l34.8,13.6c4.7,1.9,3.5,5,1.2,6.5l-50.7,32.6
		c-4.2,2.6-6.5,2.7-9.9,1.2l-39.8-16.2C18.9,163,21.1,160.9,23.5,159.4L23.5,159.4z"/>
</g>
<path class="st1" d="M168.2,320.9l13.7,54c0.9,3.5,4,7.2,9,9.6l43.2,20.4c4.3,2,8.6,3.1,6.4-5.5l-13.8-54.1c-1.3-5-5.1-6.5-7.8-7.9
	l-45.1-21.6C170.9,314.4,166.6,314.9,168.2,320.9L168.2,320.9z"/>
<path class="st1" d="M139.7,234.7l16.2,54.4c1,3.4,3,7.8,9.6,10.9l43.9,20c4.2,1.9,7.8,2.3,5.5-6.1l-14.6-56.2
	c-1.3-4.9-2.7-7.8-7.2-9.7l-47.8-20.7C139.5,224.8,137.5,227.3,139.7,234.7L139.7,234.7z"/>
<path class="st1" d="M190.4,401.6l11.4,41.9c0.9,3.4,2.5,10.2,7,12.9l46,26.6c3.9,2.3,5.7-2.1,3.9-8.8l-12-46.6
	c-1.3-4.8-4.8-7.6-7.3-9l-44.6-21.9C190.7,394.5,188.9,395.9,190.4,401.6L190.4,401.6z"/>
<path class="st1" d="M76.7,210l15.6,49.6c1,3.3,3.8,9.4,10.1,12.3l37.7,17.4c4,1.9,7.6,1.4,5.2-6.6l-14.8-49.1
	c-1.4-4.6-3.2-10.2-7.5-12l-40.4-17.4C77.3,202,74.5,203.1,76.7,210L76.7,210z"/>
<path class="st1" d="M17.9,183.7L33,230.6c1.5,5.5,2.6,8.1,6.6,10.1l37.1,15.8c5.1,1.6,4.9-1.2,2.5-9l-13-43.6
	c-1.4-4.5-4.1-9.5-8.3-11.3l-34.1-14.4C18.4,175.9,15.8,176.9,17.9,183.7L17.9,183.7z"/>
<path class="st1" d="M104.8,293.3l13.5,46.5c1,3.3,3.3,6.9,9.4,10.1l37.6,20c3.9,2.1,5.8,0.3,4.5-4.7L157.4,317
	c-1.2-4.7-2.1-9.1-6.3-11.1l-41-19.8C104.2,283.3,102.7,286.3,104.8,293.3L104.8,293.3z"/>
<path class="st1" d="M43.9,261.5L59,310.1c1.4,5.5,2.6,7.2,8.6,10l33.6,16.5c3.9,1.8,5.3-0.1,3.8-5.5l-14.1-49.9
	c-1.3-4.5-3.7-9.4-7.8-11.2L47.1,253C42.6,251,41.7,254.8,43.9,261.5L43.9,261.5z"/>
<path class="st1" d="M124.5,369.8l12.7,42.3c0.9,3.2,4,6.7,9.8,10.1l37.4,21.9c3.8,2.2,6.6,1,5.3-3.9l-12.1-45.9
	c-1.2-4.6-2.4-8.2-6.4-10.4L130,362.3C122.1,358.2,122.4,362.5,124.5,369.8L124.5,369.8z"/>
<path class="st1" d="M67.1,335.9l13.4,41.4c1,3.2,2.3,7.2,8.2,10.7l36.2,21.3c3.7,2.2,6.3,0,5-4.7l-13.9-44.4
	c-1.3-4.6-3.6-7.4-7.6-9.7l-37.1-20.8C65.6,326.5,65,329,67.1,335.9L67.1,335.9z"/>
</svg>
